<?xml version="1.0" encoding="UTF-8"?>
<svg version="1.1" xmlns="http://www.w3.org/2000/svg" width="311" height="246">
<path d="M0 0 C17.99634784 4.13861953 33.55321372 15.85556347 43.40943909 31.39819908 C64.87691358 68.48834398 53.27304299 133.46673212 50.27110291 174.52228546 C41.67322211 180.31650948 32.63291352 179.67988507 22.57652283 179.5916214 C21.05019226 179.5844384 21.05019226 179.5844384 19.49302673 179.57711029 C16.16247452 179.55956577 12.83205875 179.53379041 9.50157166 179.50666046 C7.17371657 179.48994974 4.84586114 179.47328791 2.51800537 179.45667267 C-2.34453041 179.42032685 -7.20699967 179.37911651 -12.06947327 179.33527374 C-18.30143025 179.28008486 -24.53334879 179.24366017 -30.76546192 179.21164322 C-35.56533945 179.18380608 -40.36503819 179.14275773 -45.16478539 179.09803772 C-47.4632636 179.07884703 -49.76178807 179.06454871 -52.06032753 179.05523682 C-55.267615 179.04092616 -58.47420118 179.00803493 -61.68128967 178.97052765 C-62.62943039 178.97039169 -63.57757111 178.97025574 -64.55444336 178.97011566 C-69.50995933 178.89100403 -72.62681745 178.57861182 -76.72889709 175.52228546 C-77.71889709 175.19228546 -78.70889709 174.86228546 -79.72889709 174.52228546 C-82.01903363 171.08708066 -81.90732683 169.53695446 -81.72889709 165.52228546 C-81.39889709 165.52228546 -81.06889709 165.52228546 -80.72889709 165.52228546 C-80.73350606 164.7056074 -80.73811502 163.88892935 -80.74286366 163.04750347 C-80.85319439 143.19328032 -80.9359813 123.33910987 -80.98795795 103.48464489 C-81.01376039 93.88322898 -81.04894974 84.28201746 -81.10609436 74.68073273 C-81.15586705 66.31408407 -81.18817326 57.9475834 -81.19933957 49.58079082 C-81.20586879 45.14888337 -81.22125614 40.71739935 -81.25754738 36.28562737 C-81.29141027 32.1167394 -81.30196994 27.94845045 -81.2944355 23.77943802 C-81.29581443 22.24712306 -81.30580516 20.71478869 -81.32492447 19.18259239 C-81.34971373 17.09408712 -81.34385779 15.00785909 -81.33016968 12.91930389 C-81.33477864 11.7495486 -81.33938761 10.5797933 -81.34413624 9.37459087 C-80.72889709 6.52228546 -80.72889709 6.52228546 -78.3105154 4.72363472 C-77.45858136 4.32718946 -76.60664732 3.93074421 -75.72889709 3.52228546 C-75.09953247 2.98814529 -74.47016785 2.45400513 -73.82173157 1.90367889 C-57.58292641 -8.81488442 -18.05424065 -3.57848966 0 0 Z " fill="#18A05F" transform="translate(170.72889709472656,36.47771453857422)"/>
<path d="M0 0 C1.55654297 -0.00386719 1.55654297 -0.00386719 3.14453125 -0.0078125 C5.94092942 0.11423825 8.46689879 0.49136645 11.1875 1.125 C11.1875 1.785 11.1875 2.445 11.1875 3.125 C11.8475 3.125 12.5075 3.125 13.1875 3.125 C13.5175 2.465 13.8475 1.805 14.1875 1.125 C14.8475 1.125 15.5075 1.125 16.1875 1.125 C16.1875 1.785 16.1875 2.445 16.1875 3.125 C17.1775 3.125 18.1675 3.125 19.1875 3.125 C19.5175 2.465 19.8475 1.805 20.1875 1.125 C20.5175 40.725 20.8475 80.325 21.1875 121.125 C13.29663317 125.63406676 13.29663317 125.63406676 9.41841125 125.8706665 C8.5632725 125.92589729 7.70813374 125.98112808 6.82708168 126.03803253 C2.3788928 126.18458898 -2.05661861 126.23339708 -6.50708008 126.19433594 C-8.03341064 126.18715294 -8.03341064 126.18715294 -9.59057617 126.17982483 C-12.92112839 126.16228031 -16.25154416 126.13650495 -19.58203125 126.109375 C-21.90988633 126.09266428 -24.23774177 126.07600245 -26.56559753 126.05938721 C-31.42813332 126.02304139 -36.29060258 125.98183105 -41.15307617 125.93798828 C-47.38503315 125.8827994 -53.6169517 125.84637471 -59.84906483 125.81435776 C-64.64894235 125.78652062 -69.4486411 125.74547227 -74.24838829 125.70075226 C-76.5468665 125.68156157 -78.84539097 125.66726325 -81.14393044 125.65795135 C-84.35121791 125.6436407 -87.55780408 125.61074947 -90.76489258 125.57324219 C-91.71303329 125.57310623 -92.66117401 125.57297028 -93.63804626 125.5728302 C-98.59356224 125.49371857 -101.71042036 125.18132635 -105.8125 122.125 C-106.8025 121.795 -107.7925 121.465 -108.8125 121.125 C-108.3175 80.535 -108.3175 80.535 -107.8125 39.125 C-107.4825 39.125 -107.1525 39.125 -106.8125 39.125 C-106.3175 54.47 -106.3175 54.47 -105.8125 70.125 C-104.8225 69.63 -104.8225 69.63 -103.8125 69.125 C-104.1425 68.50625 -104.4725 67.8875 -104.8125 67.25 C-105.8125 65.125 -105.8125 65.125 -105.8125 63.125 C-104.4925 63.125 -103.1725 63.125 -101.8125 63.125 C-100.75478261 64.75564764 -99.75976954 66.42780873 -98.8125 68.125 C-97.50731525 69.16147024 -96.17788653 70.16922943 -94.8125 71.125 C-93.56703595 73.61592811 -94.0357422 74.53580733 -94.8125 77.125 C-93.8225 77.455 -92.8325 77.785 -91.8125 78.125 C-92.625 80.0625 -92.625 80.0625 -93.8125 82.125 C-95.2975 82.62 -95.2975 82.62 -96.8125 83.125 C-96.8125 83.785 -96.8125 84.445 -96.8125 85.125 C-96.1525 85.455 -95.4925 85.785 -94.8125 86.125 C-94.1525 86.785 -93.4925 87.445 -92.8125 88.125 C-90.4813002 86.80119113 -90.4813002 86.80119113 -88.8125 84.125 C-89.05154474 81.43031384 -89.63084409 78.97823801 -90.33203125 76.3671875 C-90.8125 74.125 -90.8125 74.125 -89.8125 72.125 C-88.3275 73.115 -88.3275 73.115 -86.8125 74.125 C-87.1425 73.135 -87.4725 72.145 -87.8125 71.125 C-81.0625 68.125 -81.0625 68.125 -78.8125 68.125 C-78.4825 64.825 -78.1525 61.525 -77.8125 58.125 C-77.4825 58.125 -77.1525 58.125 -76.8125 58.125 C-76.8125 69.675 -76.8125 81.225 -76.8125 93.125 C-55.0325 93.125 -33.2525 93.125 -10.8125 93.125 C-10.8125 73.655 -10.8125 54.185 -10.8125 34.125 C-10.4825 34.125 -10.1525 34.125 -9.8125 34.125 C-9.3175 36.6 -9.3175 36.6 -8.8125 39.125 C-8.8125 36.815 -8.8125 34.505 -8.8125 32.125 C-7.8225 31.795 -6.8325 31.465 -5.8125 31.125 C-5.833125 30.238125 -5.85375 29.35125 -5.875 28.4375 C-5.79395696 24.14221863 -4.88576038 20.26471862 -3.8125 16.125 C-2.4925 16.785 -1.1725 17.445 0.1875 18.125 C-0.1425 18.723125 -0.4725 19.32125 -0.8125 19.9375 C-2.02037988 22.17886471 -2.02037988 22.17886471 -1.8125 25.125 C0.4111068 23.1995356 0.4111068 23.1995356 1.1875 20.125 C1.8475 20.125 2.5075 20.125 3.1875 20.125 C2.8575 19.795 2.5275 19.465 2.1875 19.125 C0.84922696 17.46229713 -0.48439785 15.79583819 -1.8125 14.125 C-2.4725 14.455 -3.1325 14.785 -3.8125 15.125 C-4.06 14.526875 -4.3075 13.92875 -4.5625 13.3125 C-5.97620012 10.83852479 -7.46305383 9.69129745 -9.8125 8.125 C-9.4825 7.135 -9.1525 6.145 -8.8125 5.125 C-8.668125 4.42375 -8.52375 3.7225 -8.375 3 C-8.0965625 2.071875 -8.0965625 2.071875 -7.8125 1.125 C-5.12423174 -0.21913413 -3.00014598 -0.00739863 0 0 Z M2.1875 14.125 C1.8575 14.785 1.5275 15.445 1.1875 16.125 C1.8475 16.125 2.5075 16.125 3.1875 16.125 C2.8575 15.465 2.5275 14.805 2.1875 14.125 Z M-96.8125 77.125 C-95.8125 79.125 -95.8125 79.125 -95.8125 79.125 Z M-98.8125 85.125 C-99.8025 86.61 -99.8025 86.61 -100.8125 88.125 C-99.8225 88.125 -98.8325 88.125 -97.8125 88.125 C-97.4825 87.135 -97.1525 86.145 -96.8125 85.125 C-97.4725 85.125 -98.1325 85.125 -98.8125 85.125 Z " fill="#119C59" transform="translate(199.8125,89.875)"/>
<path d="M0 0 C21.12 0 42.24 0 64 0 C64 19.47 64 38.94 64 59 C42.88 59 21.76 59 0 59 C0 39.53 0 20.06 0 0 Z " fill="#EEF1F0" transform="translate(124,124)"/>
<path d="M0 0 C0.8322686 -0.03677227 1.6645372 -0.07354454 2.52202606 -0.11143112 C23.89063905 -0.9520131 40.76180155 0.70222131 57.08312988 15.42794609 C61.05345131 19.14228548 64.75539777 23.07074338 68.375 27.125 C69.14134514 27.98261114 69.14134514 27.98261114 69.923172 28.85754776 C87.75 48.98724924 87.75 48.98724924 87.75 52.1875 C82.30569418 52.26187576 76.86168671 52.31620866 71.41699219 52.35229492 C69.56635381 52.36734471 67.71575089 52.38778933 65.86523438 52.41381836 C63.19912955 52.4503698 60.53349792 52.46726454 57.8671875 52.48046875 C57.04507782 52.49595261 56.22296814 52.51143646 55.37594604 52.52738953 C50.4103794 52.52883138 47.06644389 51.91417664 42.75 49.1875 C38.43621758 44.42746423 38.61351966 39.7180178 38.65234375 33.58203125 C38.6537587 32.74282639 38.65517365 31.90362152 38.65663147 31.03898621 C38.66222785 28.35928784 38.67477965 25.6796731 38.6875 23 C38.69251547 21.18294392 38.69707829 19.36588652 38.70117188 17.54882812 C38.71134509 13.09499396 38.7309212 8.64134057 38.75 4.1875 C23.405 4.6825 23.405 4.6825 7.75 5.1875 C7.75 7.1675 7.75 9.1475 7.75 11.1875 C8.2759375 9.95 8.2759375 9.95 8.8125 8.6875 C9.7715625 7.45 9.7715625 7.45 10.75 6.1875 C14.4375 5.875 14.4375 5.875 17.75 6.1875 C15.61429039 9.39106441 13.3843454 11.2237722 10.40625 13.58984375 C8.57524698 15.35607072 7.67449466 16.82541615 6.75 19.1875 C6.75 20.1775 6.75 21.1675 6.75 22.1875 C6.09 23.1775 5.43 24.1675 4.75 25.1875 C4.09 25.1875 3.43 25.1875 2.75 25.1875 C3.265625 25.97125 3.78125 26.755 4.3125 27.5625 C4.786875 28.42875 5.26125 29.295 5.75 30.1875 C5.42 30.8475 5.09 31.5075 4.75 32.1875 C5.14938767 34.28571215 5.14938767 34.28571215 5.75 36.1875 C4.76 36.5175 3.77 36.8475 2.75 37.1875 C1.76 36.6925 1.76 36.6925 0.75 36.1875 C0.75 36.8475 0.75 37.5075 0.75 38.1875 C-0.24 38.5175 -1.23 38.8475 -2.25 39.1875 C-1.4765625 39.80625 -1.4765625 39.80625 -0.6875 40.4375 C-0.213125 41.015 0.26125 41.5925 0.75 42.1875 C0.4375 44.375 0.4375 44.375 -0.25 46.1875 C-1.24 45.5275 -2.23 44.8675 -3.25 44.1875 C-4.24 45.1775 -5.23 46.1675 -6.25 47.1875 C-6.91 46.5275 -7.57 45.8675 -8.25 45.1875 C-8.6625 45.6825 -9.075 46.1775 -9.5 46.6875 C-11.25 48.1875 -11.25 48.1875 -15.25 48.1875 C-15.91 48.8475 -16.57 49.5075 -17.25 50.1875 C-18.24 50.1875 -19.23 50.1875 -20.25 50.1875 C-20.58 51.1775 -20.91 52.1675 -21.25 53.1875 C-24.25 53.1875 -27.25 53.1875 -30.25 53.1875 C-30.25 53.8475 -30.25 54.5075 -30.25 55.1875 C-31.57 54.5275 -32.89 53.8675 -34.25 53.1875 C-34.91 53.8475 -35.57 54.5075 -36.25 55.1875 C-37.57 54.8575 -38.89 54.5275 -40.25 54.1875 C-40.58 93.7875 -40.91 133.3875 -41.25 174.1875 C-42.24 174.1875 -43.23 174.1875 -44.25 174.1875 C-44.25 172.2075 -44.25 170.2275 -44.25 168.1875 C-43.92 168.1875 -43.59 168.1875 -43.25 168.1875 C-43.25460896 167.37082194 -43.25921793 166.55414389 -43.26396656 165.71271801 C-43.3742973 145.85849486 -43.4570842 126.0043244 -43.50906086 106.14985943 C-43.5348633 96.54844352 -43.57005265 86.947232 -43.62719727 77.34594727 C-43.67696996 68.97929861 -43.70927617 60.61279794 -43.72044247 52.24600536 C-43.72697169 47.81409791 -43.74235904 43.38261388 -43.77865028 38.9508419 C-43.81251317 34.78195394 -43.82307284 30.61366499 -43.81553841 26.44465256 C-43.81691733 24.9123376 -43.82690806 23.38000322 -43.84602737 21.84780693 C-43.87081664 19.75930166 -43.86496069 17.67307363 -43.85127258 15.58451843 C-43.85588155 14.41476314 -43.86049051 13.24500784 -43.86523914 12.03980541 C-43.25 9.1875 -43.25 9.1875 -40.83161831 7.38884926 C-39.97968427 6.992404 -39.12775023 6.59595875 -38.25 6.1875 C-37.62063538 5.65335983 -36.99127075 5.11921967 -36.34283447 4.56889343 C-27.69076627 -1.14197876 -10.15101037 0.42417828 0 0 Z M-3.25 40.1875 C-2.25 42.1875 -2.25 42.1875 -2.25 42.1875 Z M-7.25 42.1875 C-6.92 42.8475 -6.59 43.5075 -6.25 44.1875 C-5.92 43.5275 -5.59 42.8675 -5.25 42.1875 C-5.91 42.1875 -6.57 42.1875 -7.25 42.1875 Z " fill="#22A465" transform="translate(133.25,33.8125)"/>
<path d="M0 0 C5.95114419 4.93618912 11.41216448 10.26683157 16.87109375 15.73828125 C17.793423 16.65965378 18.71575226 17.58102631 19.66603088 18.53031921 C21.60311761 20.46594217 23.53841008 22.4033361 25.47241211 24.34204102 C27.95625795 26.83163152 30.44463157 29.31664083 32.93432522 31.80038166 C35.3115042 34.17309644 37.68488623 36.54959349 40.05859375 38.92578125 C40.9553331 39.82049637 41.85207245 40.71521149 42.77598572 41.63703918 C44.00340233 42.86918404 44.00340233 42.86918404 45.25561523 44.1262207 C45.98062729 44.85202835 46.70563934 45.577836 47.45262146 46.32563782 C49 48 49 48 49 49 C43.55569418 49.07437576 38.11168671 49.12870866 32.66699219 49.16479492 C30.81635381 49.17984471 28.96575089 49.20028933 27.11523438 49.22631836 C24.44912955 49.2628698 21.78349792 49.27976454 19.1171875 49.29296875 C18.29507782 49.30845261 17.47296814 49.32393646 16.62594604 49.33988953 C11.6603794 49.34133138 8.31644389 48.72667664 4 46 C-0.36408097 41.18446238 -0.13588181 36.379175 -0.09765625 30.17578125 C-0.09553383 28.88367989 -0.09553383 28.88367989 -0.09336853 27.56547546 C-0.0877714 24.81444831 -0.07521946 22.06350256 -0.0625 19.3125 C-0.05748463 17.4472668 -0.05292179 15.58203233 -0.04882812 13.71679688 C-0.03780292 9.14449989 -0.02054027 4.57226375 0 0 Z " fill="#8CCFAF" transform="translate(172,37)"/>
<path d="M0 0 C1.55654297 -0.00386719 1.55654297 -0.00386719 3.14453125 -0.0078125 C5.94092942 0.11423825 8.46689879 0.49136645 11.1875 1.125 C11.1875 1.785 11.1875 2.445 11.1875 3.125 C11.8475 3.125 12.5075 3.125 13.1875 3.125 C13.5175 2.465 13.8475 1.805 14.1875 1.125 C14.8475 1.125 15.5075 1.125 16.1875 1.125 C16.1875 1.785 16.1875 2.445 16.1875 3.125 C17.1775 3.125 18.1675 3.125 19.1875 3.125 C19.5175 2.465 19.8475 1.805 20.1875 1.125 C20.1875 40.065 20.1875 79.005 20.1875 119.125 C19.8575 119.125 19.5275 119.125 19.1875 119.125 C18.8575 84.805 18.5275 50.485 18.1875 15.125 C17.8575 16.445 17.5275 17.765 17.1875 19.125 C16.1975 19.455 15.2075 19.785 14.1875 20.125 C13.8575 20.785 13.5275 21.445 13.1875 22.125 C12.6340236 20.04946352 12.1875 18.28134036 12.1875 16.125 C10.2075 15.465 8.2275 14.805 6.1875 14.125 C6.8475 13.135 7.5075 12.145 8.1875 11.125 C7.1975 11.125 6.2075 11.125 5.1875 11.125 C5.249375 12.07375 5.31125 13.0225 5.375 14 C5.313125 15.03125 5.25125 16.0625 5.1875 17.125 C4.1975 17.785 3.2075 18.445 2.1875 19.125 C0.8675 17.475 -0.4525 15.825 -1.8125 14.125 C-2.8025 14.62 -2.8025 14.62 -3.8125 15.125 C-4.18375 14.2278125 -4.18375 14.2278125 -4.5625 13.3125 C-5.97620012 10.83852479 -7.46305383 9.69129745 -9.8125 8.125 C-9.4825 7.135 -9.1525 6.145 -8.8125 5.125 C-8.668125 4.42375 -8.52375 3.7225 -8.375 3 C-8.189375 2.38125 -8.00375 1.7625 -7.8125 1.125 C-5.12423174 -0.21913413 -3.00014598 -0.00739863 0 0 Z M2.1875 14.125 C1.8575 14.785 1.5275 15.445 1.1875 16.125 C1.8475 16.125 2.5075 16.125 3.1875 16.125 C2.8575 15.465 2.5275 14.805 2.1875 14.125 Z " fill="#0C9450" transform="translate(199.8125,89.875)"/>
<path d="M0 0 C14.19 0.33 28.38 0.66 43 1 C43 40.93 43 80.86 43 122 C42.67 122 42.34 122 42 122 C41.67 84.38 41.34 46.76 41 8 C40.01 8 39.02 8 38 8 C38 7.34 38 6.68 38 6 C37.34 6 36.68 6 36 6 C35.67 7.32 35.34 8.64 35 10 C35 9.34 35 8.68 35 8 C34.34 8 33.68 8 33 8 C33 7.34 33 6.68 33 6 C26.73 6 20.46 6 14 6 C14.33 7.32 14.66 8.64 15 10 C14.34 10.66 13.68 11.32 13 12 C13 11.34 13 10.68 13 10 C12.071875 9.7834375 12.071875 9.7834375 11.125 9.5625 C9 9 9 9 7 8 C6.67 7.01 6.34 6.02 6 5 C4.02514795 3.6296945 2.02613283 2.29327628 0 1 C0 0.67 0 0.34 0 0 Z " fill="#289A61" transform="translate(178,85)"/>
<path d="M0 0 C0.33 0.99 0.66 1.98 1 3 C1.66 2.34 2.32 1.68 3 1 C5.125 0.375 5.125 0.375 7 0 C7.12529002 5.51276102 7.12529002 5.51276102 6.4375 8.1875 C5.77806294 10.2175204 5.77806294 10.2175204 7 13 C6.69720123 13.60080383 6.39440247 14.20160767 6.08242798 14.82061768 C4.6921829 17.61976515 4.72115212 19.7501346 4.68115234 22.87011719 C4.66128265 24.05103943 4.64141296 25.23196167 4.62094116 26.44866943 C4.60361435 28.35353119 4.60361435 28.35353119 4.5859375 30.296875 C4.56657135 31.60078186 4.5472052 32.90468872 4.5272522 34.24810791 C4.47598917 37.70693936 4.43633256 41.16580966 4.39910889 44.62481689 C4.35903247 48.15752732 4.30795678 51.69007693 4.2578125 55.22265625 C4.16112245 62.14831991 4.07669565 69.07408685 4 76 C3.67 76 3.34 76 3 76 C3 56.2 3 36.4 3 16 C-5.25 16 -13.5 16 -22 16 C-22 15.67 -22 15.34 -22 15 C-15.565 14.505 -15.565 14.505 -9 14 C-7.89459074 11.21081851 -7.89459074 11.21081851 -8 9 C-7.34 9 -6.68 9 -6 9 C-5.34 9.66 -4.68 10.32 -4 11 C-1.41645782 11.16687448 -1.41645782 11.16687448 1 11 C-0.32 10.67 -1.64 10.34 -3 10 C-3.78260048 7.18263828 -4.19511109 5.54030762 -3.1875 2.75 C-2 1 -2 1 0 0 Z " fill="#24A466" transform="translate(185,107)"/>
<path d="M0 0 C6.6 0 13.2 0 20 0 C20 3.3 20 6.6 20 10 C13.4 10 6.8 10 0 10 C0 6.7 0 3.4 0 0 Z " fill="#1B9F5E" transform="translate(132,165)"/>
<path d="M0 0 C6.6 0 13.2 0 20 0 C20 3.3 20 6.6 20 10 C13.4 10 6.8 10 0 10 C0 6.7 0 3.4 0 0 Z " fill="#149C59" transform="translate(160,165)"/>
<path d="M0 0 C6.6 0 13.2 0 20 0 C20 3.3 20 6.6 20 10 C13.4 10 6.8 10 0 10 C0 6.7 0 3.4 0 0 Z " fill="#139D5A" transform="translate(132,148)"/>
<path d="M0 0 C6.6 0 13.2 0 20 0 C20 3.3 20 6.6 20 10 C13.4 10 6.8 10 0 10 C0 6.7 0 3.4 0 0 Z " fill="#139D5A" transform="translate(160,148)"/>
<path d="M0 0 C6.6 0 13.2 0 20 0 C20 3.3 20 6.6 20 10 C13.4 10 6.8 10 0 10 C0 6.7 0 3.4 0 0 Z " fill="#17A05D" transform="translate(132,132)"/>
<path d="M0 0 C6.6 0 13.2 0 20 0 C20 3.3 20 6.6 20 10 C13.4 10 6.8 10 0 10 C0 6.7 0 3.4 0 0 Z " fill="#129C58" transform="translate(160,132)"/>
<path d="M0 0 C1.32 0 2.64 0 4 0 C3.67 1.32 3.34 2.64 3 4 C2.34 4 1.68 4 1 4 C1 57.46 1 110.92 1 166 C0.01 166 -0.98 166 -2 166 C-2 164.02 -2 162.04 -2 160 C-1.67 160 -1.34 160 -1 160 C-1.00138269 158.77221754 -1.00138269 158.77221754 -1.00279331 157.51963139 C-1.02484683 137.63266847 -1.04141071 117.74570764 -1.05181217 97.85873508 C-1.05697552 88.24167505 -1.06401895 78.62462316 -1.07543945 69.00756836 C-1.08538512 60.62848831 -1.09185315 52.24941416 -1.09408849 43.87032837 C-1.0953958 39.43083875 -1.09848292 34.99136601 -1.10573006 30.55188179 C-1.11248842 26.37822727 -1.11461734 22.20459667 -1.11310768 18.03093719 C-1.11338409 16.4945888 -1.11539031 14.95823966 -1.11920547 13.42189598 C-1.12413987 11.33340383 -1.12299925 9.24500343 -1.12025452 7.1565094 C-1.12163721 5.39911108 -1.12163721 5.39911108 -1.12304783 3.60620975 C-1 1 -1 1 0 0 Z " fill="#5EBB8D" transform="translate(91,42)"/>
<path d="M0 0 C0.33 0 0.66 0 1 0 C1 49.5 1 99 1 150 C0.67 150 0.34 150 0 150 C0 100.5 0 51 0 0 Z " fill="#FFFFFF" transform="translate(89,45)"/>
<path d="M0 0 C0.33 0 0.66 0 1 0 C1 40.26 1 80.52 1 122 C0.67 122 0.34 122 0 122 C0 81.74 0 41.48 0 0 Z " fill="#FFFFFF" transform="translate(222,85)"/>
<path d="M0 0 C33.99 0 67.98 0 103 0 C103 0.33 103 0.66 103 1 C69.01 1 35.02 1 0 1 C0 0.67 0 0.34 0 0 Z " fill="#FFFFFF" transform="translate(98,216)"/>
<path d="M0 0 C3.63 0 7.26 0 11 0 C10.01 0.66 9.02 1.32 8 2 C7.67 3.65 7.34 5.3 7 7 C10.96 7.33 14.92 7.66 19 8 C19 5.69 19 3.38 19 1 C18.01 0.67 17.02 0.34 16 0 C17.32 0 18.64 0 20 0 C20 2.97 20 5.94 20 9 C13.4 9 6.8 9 0 9 C0 6.03 0 3.06 0 0 Z " fill="#0C9752" transform="translate(160,149)"/>
<path d="M0 0 C0.33 0 0.66 0 1 0 C1.01030746 0.97052811 1.02061493 1.94105621 1.03123474 2.94099426 C1.1289107 12.07884829 1.2316393 21.21663334 1.33933926 30.35437489 C1.39454827 35.05238812 1.4479651 39.7504076 1.49731445 44.44848633 C1.54498774 48.98077035 1.59733172 53.51297838 1.65294075 58.04517174 C1.67335085 59.77593791 1.69206616 61.5067249 1.70907402 63.23752785 C1.73314776 65.65818447 1.7631983 68.07869754 1.79467773 70.49926758 C1.8004332 71.21783936 1.80618866 71.93641113 1.81211853 72.67675781 C1.85721107 75.71904314 2.0300445 78.09013349 3 81 C1.02 81.495 1.02 81.495 -1 82 C-0.505 41.41 -0.505 41.41 0 0 Z " fill="#119351" transform="translate(92,129)"/>
<path d="M0 0 C6.27 0 12.54 0 19 0 C15 2 15 2 12 1.8125 C11.01 1.874375 10.02 1.93625 9 2 C7.68 3.65 6.36 5.3 5 7 C9.95 7.33 14.9 7.66 20 8 C20 8.33 20 8.66 20 9 C13.4 9 6.8 9 0 9 C0 6.03 0 3.06 0 0 Z " fill="#0F9955" transform="translate(132,133)"/>
<path d="M0 0 C6.6 0 13.2 0 20 0 C20 2.64 20 5.28 20 8 C17.69 8 15.38 8 13 8 C12.67 6.35 12.34 4.7 12 3 C12.99 2.67 13.98 2.34 15 2 C8.07 1.505 8.07 1.505 1 1 C1 3.31 1 5.62 1 8 C0.67 8 0.34 8 0 8 C0 5.36 0 2.72 0 0 Z " fill="#0D9753" transform="translate(132,165)"/>
<path d="M0 0 C24.42 0 48.84 0 74 0 C74 0.33 74 0.66 74 1 C49.58 1 25.16 1 0 1 C0 0.67 0 0.34 0 0 Z " fill="#FFFFFF" transform="translate(99,35)"/>
<path d="M0 0 C0.33 0 0.66 0 1 0 C1 2.64 1 5.28 1 8 C5.95 8 10.9 8 16 8 C15.67 6.68 15.34 5.36 15 4 C15.33 3.34 15.66 2.68 16 2 C15.34 1.34 14.68 0.68 14 0 C15.98 0 17.96 0 20 0 C20 2.97 20 5.94 20 9 C13.4 9 6.8 9 0 9 C0 6.03 0 3.06 0 0 Z " fill="#0B9550" transform="translate(132,149)"/>
<path d="M0 0 C1.32 0 2.64 0 4 0 C3.67 1.32 3.34 2.64 3 4 C2.34 4 1.68 4 1 4 C1 16.54 1 29.08 1 42 C0.67 42 0.34 42 0 42 C-0.16721165 36.17944212 -0.32781152 30.35875454 -0.48217773 24.5378418 C-0.53567894 22.55602051 -0.5910143 20.57424788 -0.64819336 18.5925293 C-0.72987855 15.75059507 -0.80505172 12.90855338 -0.87890625 10.06640625 C-0.90594131 9.17474258 -0.93297638 8.28307892 -0.96083069 7.36439514 C-1.01275915 5.24352554 -1.01188911 3.12147191 -1 1 C-0.67 0.67 -0.34 0.34 0 0 Z " fill="#50B684" transform="translate(91,42)"/>
<path d="M0 0 C6.6 0 13.2 0 20 0 C19.01 0.99 18.02 1.98 17 3 C16.2730774 6.10839021 16.2730774 6.10839021 16 9 C15.01 9 14.02 9 13 9 C10 4.77777778 10 4.77777778 10 2 C6.7 1.67 3.4 1.34 0 1 C0 0.67 0 0.34 0 0 Z " fill="#2CA86C" transform="translate(132,148)"/>
<path d="M0 0 C0.99 0.33 1.98 0.66 3 1 C3 1.33 3 1.66 3 2 C3.66 2.33 4.32 2.66 5 3 C4.67 3.99 4.34 4.98 4 6 C4.66 6.33 5.32 6.66 6 7 C4.68 7.33 3.36 7.66 2 8 C2 8.66 2 9.32 2 10 C2.99 10.33 3.98 10.66 5 11 C3.68 11 2.36 11 1 11 C1 10.34 1 9.68 1 9 C0.01 9.33 -0.98 9.66 -2 10 C-2.33 9.01 -2.66 8.02 -3 7 C-2.34 6.34 -1.68 5.68 -1 5 C-1.99 4.34 -2.98 3.68 -4 3 C-3.01 2.67 -2.02 2.34 -1 2 C-0.67 1.34 -0.34 0.68 0 0 Z " fill="#1E9058" transform="translate(199,90)"/>
<path d="M0 0 C6.6 0 13.2 0 20 0 C20 0.33 20 0.66 20 1 C18.35 1.33 16.7 1.66 15 2 C14.67 2.99 14.34 3.98 14 5 C14.99 6.485 14.99 6.485 16 8 C12.75728494 7.4409112 11.06942576 6.5867822 9 4 C9 3.34 9 2.68 9 2 C6.03 1.67 3.06 1.34 0 1 C0 0.67 0 0.34 0 0 Z " fill="#2FA96E" transform="translate(160,148)"/>
<path d="M0 0 C0.99 0 1.98 0 3 0 C5.1875 3 5.1875 3 7 6 C5.02 6.99 5.02 6.99 3 8 C3 7.34 3 6.68 3 6 C2.34 5.67 1.68 5.34 1 5 C1 4.34 1 3.68 1 3 C0.34 2.67 -0.32 2.34 -1 2 C-0.67 1.34 -0.34 0.68 0 0 Z " fill="#1C9057" transform="translate(206,91)"/>
<path d="M0 0 C1.32 0 2.64 0 4 0 C3.67 1.32 3.34 2.64 3 4 C2.34 4 1.68 4 1 4 C1 6.64 1 9.28 1 12 C0.67 12 0.34 12 0 12 C-0.19401633 10.18818595 -0.38004375 8.37551468 -0.5625 6.5625 C-0.66691406 5.55316406 -0.77132812 4.54382812 -0.87890625 3.50390625 C-0.91886719 2.67761719 -0.95882812 1.85132813 -1 1 C-0.67 0.67 -0.34 0.34 0 0 Z " fill="#7BC6A2" transform="translate(91,42)"/>
<path d="M0 0 C3.3 0 6.6 0 10 0 C10 0.33 10 0.66 10 1 C6.7 1 3.4 1 0 1 C0 0.67 0 0.34 0 0 Z " fill="#FFFFFF" transform="translate(201,217)"/>
<path d="M0 0 C3 1 3 1 3 1 Z " fill="#FFFFFF" transform="translate(211,216)"/>
<path d="M0 0 C0.99 0.495 0.99 0.495 2 1 C1.01 1.495 1.01 1.495 0 2 C0 1.34 0 0.68 0 0 Z " fill="#FFFFFF" transform="translate(92,40)"/>
<path d="M0 0 C0.99 0.495 0.99 0.495 2 1 C1.01 1.495 1.01 1.495 0 2 C0 1.34 0 0.68 0 0 Z " fill="#FFFFFF" transform="translate(94,38)"/>
<path d="M0 0 C2 1 2 1 2 1 Z " fill="#FFFFFF" transform="translate(214,215)"/>
<path d="M0 0 C2 1 2 1 2 1 Z " fill="#FFFFFF" transform="translate(96,215)"/>
<path d="" fill="#FFFFFF" transform="translate(0,0)"/>
<path d="M0 0 C2 1 2 1 2 1 Z " fill="#FFFFFF" transform="translate(97,36)"/>
<path d="" fill="#FFFFFF" transform="translate(0,0)"/>
<path d="" fill="#FFFFFF" transform="translate(0,0)"/>
<path d="" fill="#FFFFFF" transform="translate(0,0)"/>
<path d="" fill="#FFFFFF" transform="translate(0,0)"/>
<path d="" fill="#FFFFFF" transform="translate(0,0)"/>
<path d="" fill="#FFFFFF" transform="translate(0,0)"/>
<path d="" fill="#FFFFFF" transform="translate(0,0)"/>
<path d="" fill="#FFFFFF" transform="translate(0,0)"/>
<path d="" fill="#FFFFFF" transform="translate(0,0)"/>
<path d="" fill="#FFFFFF" transform="translate(0,0)"/>
<path d="" fill="#FFFFFF" transform="translate(0,0)"/>
<path d="" fill="#FFFFFF" transform="translate(0,0)"/>
<path d="" fill="#FFFFFF" transform="translate(0,0)"/>
<path d="" fill="#FFFFFF" transform="translate(0,0)"/>
<path d="" fill="#FFFFFF" transform="translate(0,0)"/>
<path d="" fill="#FFFFFF" transform="translate(0,0)"/>
<path d="" fill="#FFFFFF" transform="translate(0,0)"/>
<path d="" fill="#FFFFFF" transform="translate(0,0)"/>
<path d="" fill="#FFFFFF" transform="translate(0,0)"/>
<path d="" fill="#FFFFFF" transform="translate(0,0)"/>
<path d="" fill="#FFFFFF" transform="translate(0,0)"/>
<path d="" fill="#FFFFFF" transform="translate(0,0)"/>
<path d="" fill="#FFFFFF" transform="translate(0,0)"/>
<path d="" fill="#FFFFFF" transform="translate(0,0)"/>
<path d="" fill="#FFFFFF" transform="translate(0,0)"/>
<path d="" fill="#FFFFFF" transform="translate(0,0)"/>
<path d="" fill="#FFFFFF" transform="translate(0,0)"/>
<path d="" fill="#FFFFFF" transform="translate(0,0)"/>
<path d="" fill="#FFFFFF" transform="translate(0,0)"/>
<path d="" fill="#FFFFFF" transform="translate(0,0)"/>
<path d="" fill="#FFFFFF" transform="translate(0,0)"/>
<path d="" fill="#FFFFFF" transform="translate(0,0)"/>
<path d="" fill="#FFFFFF" transform="translate(0,0)"/>
<path d="" fill="#FFFFFF" transform="translate(0,0)"/>
<path d="" fill="#FFFFFF" transform="translate(0,0)"/>
<path d="" fill="#FFFFFF" transform="translate(0,0)"/>
<path d="" fill="#FFFFFF" transform="translate(0,0)"/>
<path d="" fill="#FFFFFF" transform="translate(0,0)"/>
<path d="" fill="#FFFFFF" transform="translate(0,0)"/>
<path d="" fill="#FFFFFF" transform="translate(0,0)"/>
<path d="" fill="#FFFFFF" transform="translate(0,0)"/>
<path d="" fill="#FFFFFF" transform="translate(0,0)"/>
<path d="" fill="#FFFFFF" transform="translate(0,0)"/>
<path d="" fill="#FFFFFF" transform="translate(0,0)"/>
<path d="" fill="#FFFFFF" transform="translate(0,0)"/>
<path d="" fill="#FFFFFF" transform="translate(0,0)"/>
<path d="" fill="#FFFFFF" transform="translate(0,0)"/>
<path d="" fill="#FFFFFF" transform="translate(0,0)"/>
<path d="" fill="#FFFFFF" transform="translate(0,0)"/>
<path d="" fill="#FFFFFF" transform="translate(0,0)"/>
<path d="" fill="#FFFFFF" transform="translate(0,0)"/>
<path d="" fill="#FFFFFF" transform="translate(0,0)"/>
<path d="" fill="#FFFFFF" transform="translate(0,0)"/>
<path d="" fill="#FFFFFF" transform="translate(0,0)"/>
<path d="" fill="#FFFFFF" transform="translate(0,0)"/>
<path d="" fill="#FFFFFF" transform="translate(0,0)"/>
<path d="" fill="#FFFFFF" transform="translate(0,0)"/>
</svg>
