<?xml version="1.0" encoding="UTF-8"?>
<svg version="1.1" xmlns="http://www.w3.org/2000/svg" width="360" height="225">
<path d="M0 0 C0.68878766 -0.00467997 1.37757532 -0.00935994 2.08723533 -0.01418173 C4.36482827 -0.02602165 6.64180711 -0.01671867 8.91940308 -0.00723267 C10.56452787 -0.01130321 12.20964992 -0.0166478 13.85476685 -0.02316284 C18.30091192 -0.03678269 22.74684703 -0.0315605 27.19299555 -0.02202559 C31.85553692 -0.01440383 36.51806091 -0.02148133 41.18060303 -0.02618408 C49.00665499 -0.03163323 56.83262186 -0.02447097 64.65866089 -0.01016235 C73.69795514 0.00617396 82.73704647 0.00086516 91.77633584 -0.01564157 C99.5498284 -0.02926678 107.32325998 -0.03117138 115.09676063 -0.02332556 C119.73418941 -0.01865621 124.37152287 -0.01800411 129.00894547 -0.02793503 C133.36750263 -0.0366179 137.72579866 -0.03055874 142.0843277 -0.01325226 C143.68104749 -0.00929495 145.27778936 -0.0104085 146.87450027 -0.01704025 C149.05920558 -0.02527584 151.24308147 -0.01491118 153.42773438 0 C155.25885615 0.00169662 155.25885615 0.00169662 157.12697029 0.00342751 C161.85629339 0.51946074 165.34360098 2.25930965 169.58688354 4.38095093 C169.58688354 75.99095093 169.58688354 147.60095093 169.58688354 221.38095093 C160.58662728 225.88107906 160.58662728 225.88107906 154.224823 225.88215637 C153.52942822 225.88769077 152.83403345 225.89322517 152.11756611 225.89892727 C149.81139062 225.91242852 147.50631742 225.89762351 145.20016479 225.88265991 C143.53710473 225.88644695 141.87404783 225.89195016 140.21099854 225.89903259 C135.71094358 225.91295435 131.21127238 225.90184057 126.71123886 225.88532138 C121.99310787 225.87143355 117.27499832 225.87793521 112.55685425 225.88145447 C104.63483524 225.88415364 96.712968 225.87070619 88.79098511 225.84750366 C79.6432297 225.82089579 70.49572797 225.81914794 61.34794712 225.83089203 C52.53371002 225.84168613 43.71956433 225.83546992 34.90533447 225.82133675 C31.16070383 225.81559111 27.41614038 225.81564842 23.67150879 225.82040215 C19.25877734 225.82518848 14.84632226 225.8150019 10.43364334 225.79344749 C8.81799883 225.78790196 7.20232764 225.78739372 5.58668137 225.79240036 C-10.32752025 225.835517 -10.32752025 225.835517 -16.41311646 222.38095093 C-17.10301208 220.27315426 -17.10301208 220.27315426 -17.41311646 218.38095093 C-17.74311646 218.38095093 -18.07311646 218.38095093 -18.41311646 218.38095093 C-18.41311646 204.85095093 -18.41311646 191.32095093 -18.41311646 177.38095093 C-19.07311646 177.05095093 -19.73311646 176.72095093 -20.41311646 176.38095093 C-19.75311646 176.05095093 -19.09311646 175.72095093 -18.41311646 175.38095093 C-18.9613356 175.38539215 -19.50955475 175.38983337 -20.0743866 175.39440918 C-25.80112084 175.43879529 -31.52780588 175.46888061 -37.25466919 175.49081421 C-39.38945502 175.50084655 -41.5242272 175.51447556 -43.65896606 175.53182983 C-46.73460265 175.55619983 -49.81005688 175.56746193 -52.88577271 175.57626343 C-54.30805931 175.59174728 -54.30805931 175.59174728 -55.75907898 175.60754395 C-61.80477765 175.60855824 -66.92347527 175.12577152 -72.41311646 172.38095093 C-73.62407384 166.6378578 -73.56734623 160.89220579 -73.57424927 155.04281616 C-73.57921417 154.02730682 -73.58417908 153.01179749 -73.58929443 151.96551514 C-73.60383892 148.62351798 -73.61070319 145.28156821 -73.61624146 141.93954468 C-73.62199682 139.60979715 -73.6277545 137.28004964 -73.6335144 134.95030212 C-73.64400071 130.0740741 -73.64985968 125.19786246 -73.65335083 120.32162476 C-73.65884749 114.07497292 -73.68291063 107.82853773 -73.71132278 101.581954 C-73.72994249 96.77354801 -73.73515429 91.96519445 -73.73668671 87.15675545 C-73.73971244 84.85347362 -73.74773828 82.5501927 -73.76087189 80.24694633 C-73.77792701 77.0276925 -73.77605386 73.80897185 -73.76956177 70.58969116 C-73.77877655 69.64043259 -73.78799133 68.69117401 -73.79748535 67.71315002 C-73.75926394 61.66255614 -73.01688719 57.17759357 -68.72561646 52.56845093 C-60.93603015 48.56839309 -49.96785285 50.33716788 -41.51467896 50.47689819 C-39.56687694 50.50697733 -37.61889023 50.52424601 -35.67092896 50.54110718 C-34.51737915 50.55794556 -33.36382935 50.57478394 -32.17532349 50.59213257 C-29.26956288 50.67149429 -29.26956288 50.67149429 -27.41311646 48.38095093 C-24.35927767 48.41402499 -21.4444075 48.94790935 -18.41311646 49.38095093 C-18.41311646 44.76095093 -18.41311646 40.14095093 -18.41311646 35.38095093 C-18.08311646 35.38095093 -17.75311646 35.38095093 -17.41311646 35.38095093 C-17.08311646 24.82095093 -16.75311646 14.26095093 -16.41311646 3.38095093 C-6.28773046 0.00582226 -6.28773046 0.00582226 0 0 Z " fill="#0F7C40" transform="translate(132.41311645507813,-0.380950927734375)"/>
<path d="M0 0 C1.65 0 3.3 0 5 0 C6 1 6 1 6.12025452 3.20826721 C6.11803391 4.18311569 6.11581329 5.15796417 6.11352539 6.16235352 C6.11344986 7.26341934 6.11337433 8.36448517 6.11329651 9.49891663 C6.10813522 10.6968132 6.10297394 11.89470978 6.09765625 13.12890625 C6.09553383 14.95795753 6.09553383 14.95795753 6.09336853 16.82395935 C6.08774967 20.7368307 6.07519396 24.64964581 6.0625 28.5625 C6.05748743 31.20768147 6.0529241 33.85286383 6.04882812 36.49804688 C6.03777411 42.99871974 6.02049683 49.49935032 6 56 C13.26 56 20.52 56 28 56 C29.26372044 58.52744088 29.12022795 60.26380308 29.11352539 63.09228516 C29.11340454 64.16808838 29.11328369 65.2438916 29.11315918 66.35229492 C29.10804321 67.48642822 29.10292725 68.62056152 29.09765625 69.7890625 C29.09664917 70.82893311 29.09564209 71.86880371 29.09460449 72.94018555 C29.08936135 76.83513487 29.07540015 80.73006851 29.0625 84.625 C29.041875 93.32875 29.02125 102.0325 29 111 C73.055 111.495 73.055 111.495 118 112 C119.16071429 146.82142857 119.16071429 146.82142857 119 164 C111.32925211 169.07453893 103.4782386 168.55922976 94.61328125 168.50170898 C92.95022119 168.50549602 91.28716428 168.51099923 89.62411499 168.51808167 C85.12406003 168.53200342 80.62438883 168.52088964 76.12435532 168.50437045 C71.40622433 168.49048262 66.68811478 168.49698428 61.9699707 168.50050354 C54.04795169 168.50320271 46.12608445 168.48975526 38.20410156 168.46655273 C29.05634615 168.43994486 19.90884442 168.43819701 10.76106358 168.4499411 C1.94682648 168.46073521 -6.86731922 168.45451899 -15.68154907 168.44038582 C-19.42617972 168.43464018 -23.17074316 168.43469749 -26.91537476 168.43945122 C-31.3281062 168.44423755 -35.74056128 168.43405097 -40.1532402 168.41249657 C-41.76888472 168.40695104 -43.38455591 168.40644279 -45.00020218 168.41144943 C-60.91440379 168.45456607 -60.91440379 168.45456607 -67 165 C-67.68989563 162.89220333 -67.68989563 162.89220333 -68 161 C-68.33 161 -68.66 161 -69 161 C-69 147.47 -69 133.94 -69 120 C-69.99 119.505 -69.99 119.505 -71 119 C-70.34 118.67 -69.68 118.34 -69 118 C-69.82232872 118.00666183 -69.82232872 118.00666183 -70.66127014 118.01345825 C-76.38800439 118.05784436 -82.11468942 118.08792968 -87.84155273 118.10986328 C-89.97633857 118.11989563 -92.11111074 118.13352464 -94.24584961 118.15087891 C-97.32148619 118.1752489 -100.39694043 118.186511 -103.47265625 118.1953125 C-104.89494286 118.21079636 -104.89494286 118.21079636 -106.34596252 118.22659302 C-112.39166119 118.22760731 -117.51035882 117.74482059 -123 115 C-123 78.37 -123 41.74 -123 4 C-122.67 4 -122.34 4 -122 4 C-121.67 23.47 -121.34 42.94 -121 63 C-120.34 63 -119.68 63 -119 63 C-118.71125 62.401875 -118.4225 61.80375 -118.125 61.1875 C-117 59 -117 59 -115 56 C-114.31822584 54.67432801 -113.64808564 53.34246312 -113 52 C-112.34 52.33 -111.68 52.66 -111 53 C-110.67 52.34 -110.34 51.68 -110 51 C-109.01 51.99 -108.02 52.98 -107 54 C-107.33 54.99 -107.66 55.98 -108 57 C-107.34 57 -106.68 57 -106 57 C-105.34 59.31 -104.68 61.62 -104 64 C-104 63.01 -104 62.02 -104 61 C-103.67 60.01 -103.34 59.02 -103 58 C-103.1321143 55.77266454 -103.1321143 55.77266454 -103.5 53.4375 C-104.10955414 49.21910828 -104.10955414 49.21910828 -103 47 C-101.25 46.0625 -101.25 46.0625 -99 46 C-95.83631836 48.63640136 -93.5595265 51.17207132 -92 55 C-92 54.34 -92 53.68 -92 53 C-91.67 52.67 -91.34 52.34 -91 52 C-91.99 51.34 -92.98 50.68 -94 50 C-93.67 49.01 -93.34 48.02 -93 47 C-93 46.01 -93 45.02 -93 44 C-92.68911632 42.32900023 -92.35919668 40.66128463 -92 39 C-91.030625 38.731875 -90.06125 38.46375 -89.0625 38.1875 C-87.5465625 37.5996875 -87.5465625 37.5996875 -86 37 C-85.67 36.01 -85.34 35.02 -85 34 C-85.66 33.01 -86.32 32.02 -87 31 C-86.505 29.515 -86.505 29.515 -86 28 C-83.53515771 31.92621123 -81.07557009 35.85540314 -78.62890625 39.79296875 C-77.09941334 42.25235818 -75.54981044 44.68867769 -73.96484375 47.11328125 C-73.41957031 47.96277344 -72.87429687 48.81226563 -72.3125 49.6875 C-71.83425781 50.41324219 -71.35601562 51.13898438 -70.86328125 51.88671875 C-69.67891205 54.78601167 -69.9712134 56.03952548 -71 59 C-72.43868903 61.3949605 -73.9017059 63.65545485 -75.5 65.9375 C-76.40474989 67.25966184 -77.30836779 68.58259891 -78.2109375 69.90625 C-78.67209961 70.57914062 -79.13326172 71.25203125 -79.60839844 71.9453125 C-81.83892075 75.23865913 -83.98399867 78.58553232 -86.125 81.9375 C-87.40375 83.938125 -88.6825 85.93875 -90 88 C-85.05 88.33 -80.1 88.66 -75 89 C-74.34 87.35 -73.68 85.7 -73 84 C-72.24409971 82.54572956 -71.46105676 81.10526494 -70.65234375 79.6796875 C-70.21212891 78.89722656 -69.77191406 78.11476563 -69.31835938 77.30859375 C-68.86267578 76.50550781 -68.40699219 75.70242187 -67.9375 74.875 C-67.02758422 73.26956655 -66.11993211 71.66284743 -65.21484375 70.0546875 C-64.81386475 69.34812012 -64.41288574 68.64155273 -63.99975586 67.91357422 C-62.86973285 65.87423368 -62.86973285 65.87423368 -62 63 C-61.34 63 -60.68 63 -60 63 C-54.140625 74.71875 -54.140625 74.71875 -53.08007812 76.84765625 C-52.34224861 78.31797836 -51.59574376 79.78397078 -50.84179688 81.24609375 C-48 86.78935185 -48 86.78935185 -48 89 C-42.72 89 -37.44 89 -32 89 C-34.66155898 84.93605753 -34.66155898 84.93605753 -37.35571289 80.89379883 C-39.11966065 78.11654708 -40.07982545 76.5768829 -39.62109375 73.26171875 C-39.41613281 72.51535156 -39.21117187 71.76898438 -39 71 C-39.66 70.01 -40.32 69.02 -41 68 C-39.35 67.67 -37.7 67.34 -36 67 C-35.67 65.35 -35.34 63.7 -35 62 C-33 62 -31 62 -29 62 C-28.67 61.01 -28.34 60.02 -28 59 C-27.505 60.98 -27.505 60.98 -27 63 C-26.01 62.01 -26.01 62.01 -25 61 C-22.375 61.375 -22.375 61.375 -20 62 C-19.34 61.01 -18.68 60.02 -18 59 C-15.375 58.3125 -15.375 58.3125 -13 58 C-13.99 56.68 -14.98 55.36 -16 54 C-17.98 54.99 -17.98 54.99 -20 56 C-20.33 55.01 -20.66 54.02 -21 53 C-20.01 52.67 -19.02 52.34 -18 52 C-17.34 51.01 -16.68 50.02 -16 49 C-15.566875 49.495 -15.13375 49.99 -14.6875 50.5 C-13.00259517 52.33218192 -13.00259517 52.33218192 -10 52 C-9.34 52.66 -8.68 53.32 -8 54 C-8.495 52.02 -8.495 52.02 -9 50 C-10.485 50.495 -10.485 50.495 -12 51 C-12 48 -12 48 -10.625 46.3125 C-9 45 -9 45 -7 45 C-6.505 44.01 -6.505 44.01 -6 43 C-5.896875 43.639375 -5.79375 44.27875 -5.6875 44.9375 C-5.460625 45.618125 -5.23375 46.29875 -5 47 C-3.515 47.495 -3.515 47.495 -2 48 C-1.505 51.465 -1.505 51.465 -1 55 C-0.67 36.85 -0.34 18.7 0 0 Z M-100 49 C-99.67 49.99 -99.34 50.98 -99 52 C-98.34 51.34 -97.68 50.68 -97 50 C-97.99 49.67 -98.98 49.34 -100 49 Z M-97 46 C-96.34 46 -95.68 46 -95 46 C-95 46.66 -95 47.32 -95 48 C-95.66 48 -96.32 48 -97 48 C-97 47.34 -97 46.68 -97 46 Z " fill="#165A35" transform="translate(183,57)"/>
<path d="M0 0 C0.33 0 0.66 0 1 0 C1.33 19.47 1.66 38.94 2 59 C2.66 59 3.32 59 4 59 C4.28875 58.401875 4.5775 57.80375 4.875 57.1875 C6 55 6 55 8 52 C8.68177416 50.67432801 9.35191436 49.34246312 10 48 C10.66 48.33 11.32 48.66 12 49 C12.33 48.34 12.66 47.68 13 47 C13.99 47.99 14.98 48.98 16 50 C15.67 50.99 15.34 51.98 15 53 C15.66 53 16.32 53 17 53 C17.66 55.31 18.32 57.62 19 60 C19 59.01 19 58.02 19 57 C19.33 56.01 19.66 55.02 20 54 C19.8678857 51.77266454 19.8678857 51.77266454 19.5 49.4375 C18.89044586 45.21910828 18.89044586 45.21910828 20 43 C21.75 42.0625 21.75 42.0625 24 42 C27.16368164 44.63640136 29.4404735 47.17207132 31 51 C31 50.34 31 49.68 31 49 C31.33 48.67 31.66 48.34 32 48 C31.01 47.34 30.02 46.68 29 46 C29.33 45.01 29.66 44.02 30 43 C30 42.01 30 41.02 30 40 C30.31088368 38.32900023 30.64080332 36.66128463 31 35 C31.969375 34.731875 32.93875 34.46375 33.9375 34.1875 C35.4534375 33.5996875 35.4534375 33.5996875 37 33 C37.33 32.01 37.66 31.02 38 30 C37.34 29.01 36.68 28.02 36 27 C36.495 25.515 36.495 25.515 37 24 C39.46484229 27.92621123 41.92442991 31.85540314 44.37109375 35.79296875 C45.90058666 38.25235818 47.45018956 40.68867769 49.03515625 43.11328125 C49.58042969 43.96277344 50.12570313 44.81226563 50.6875 45.6875 C51.16574219 46.41324219 51.64398438 47.13898438 52.13671875 47.88671875 C53.32108795 50.78601167 53.0287866 52.03952548 52 55 C50.56131097 57.3949605 49.0982941 59.65545485 47.5 61.9375 C46.59525011 63.25966184 45.69163221 64.58259891 44.7890625 65.90625 C44.32790039 66.57914062 43.86673828 67.25203125 43.39160156 67.9453125 C41.16107925 71.23865913 39.01600133 74.58553232 36.875 77.9375 C35.59625 79.938125 34.3175 81.93875 33 84 C37.95 84.33 42.9 84.66 48 85 C48.66 83.35 49.32 81.7 50 80 C50.75590029 78.54572956 51.53894324 77.10526494 52.34765625 75.6796875 C52.78787109 74.89722656 53.22808594 74.11476563 53.68164062 73.30859375 C54.13732422 72.50550781 54.59300781 71.70242187 55.0625 70.875 C55.97241578 69.26956655 56.88006789 67.66284743 57.78515625 66.0546875 C58.18613525 65.34812012 58.58711426 64.64155273 59.00024414 63.91357422 C60.13026715 61.87423368 60.13026715 61.87423368 61 59 C61.66 59 62.32 59 63 59 C68.859375 70.71875 68.859375 70.71875 69.91992188 72.84765625 C70.65775139 74.31797836 71.40425624 75.78397078 72.15820312 77.24609375 C75 82.78935185 75 82.78935185 75 85 C80.28 85 85.56 85 91 85 C88.33844102 80.93605753 88.33844102 80.93605753 85.64428711 76.89379883 C83.88033935 74.11654708 82.92017455 72.5768829 83.37890625 69.26171875 C83.58386719 68.51535156 83.78882813 67.76898438 84 67 C83.34 66.01 82.68 65.02 82 64 C83.65 63.67 85.3 63.34 87 63 C87.33 61.35 87.66 59.7 88 58 C90 58 92 58 94 58 C94.33 57.01 94.66 56.02 95 55 C95.495 56.98 95.495 56.98 96 59 C96.99 58.01 96.99 58.01 98 57 C100.625 57.375 100.625 57.375 103 58 C103.66 57.01 104.32 56.02 105 55 C107.625 54.3125 107.625 54.3125 110 54 C109.01 52.68 108.02 51.36 107 50 C105.02 50.99 105.02 50.99 103 52 C102.67 51.01 102.34 50.02 102 49 C102.99 48.67 103.98 48.34 105 48 C105.66 47.01 106.32 46.02 107 45 C107.433125 45.495 107.86625 45.99 108.3125 46.5 C109.99740483 48.33218192 109.99740483 48.33218192 113 48 C113.66 48.66 114.32 49.32 115 50 C114.505 48.02 114.505 48.02 114 46 C112.515 46.495 112.515 46.495 111 47 C111 44 111 44 112.375 42.3125 C114 41 114 41 116 41 C116.495 40.01 116.495 40.01 117 39 C117.103125 39.639375 117.20625 40.27875 117.3125 40.9375 C117.539375 41.618125 117.76625 42.29875 118 43 C119.485 43.495 119.485 43.495 121 44 C122.13774609 50.56100247 122.29559897 57.1031813 122.5 63.75 C122.69768986 70.09071925 122.90119312 76.39746278 123.54296875 82.7109375 C124.03844866 87.80465618 124.05791913 92.76695434 123.8125 97.875 C123.79380859 98.6896875 123.77511719 99.504375 123.75585938 100.34375 C123.51935055 105.4390629 122.8390906 108.31273784 119 112 C116.33009021 113.3349549 114.18537707 113.21148613 111.19555664 113.30981445 C109.34612709 113.37134956 109.34612709 113.37134956 107.45933533 113.43412781 C106.08879195 113.47358307 104.71823148 113.51244839 103.34765625 113.55078125 C102.64664354 113.57159571 101.94563084 113.59241016 101.22337532 113.61385536 C84.31778716 114.10927998 67.4115844 114.18744843 50.49975586 114.18530273 C46.21458492 114.18519893 41.92957169 114.19913528 37.64443874 114.21607494 C34.29093173 114.22718496 30.93746404 114.22922267 27.58394051 114.22869301 C26.00159191 114.22986361 24.41924199 114.23423293 22.83691216 114.24202538 C20.64563265 114.25185737 18.4547134 114.24894086 16.26342773 114.24291992 C14.40632423 114.24505745 14.40632423 114.24505745 12.51170349 114.24723816 C8.06208466 113.93396696 4.00329474 113.00164737 0 111 C0 74.37 0 37.74 0 0 Z M23 45 C23.33 45.99 23.66 46.98 24 48 C24.66 47.34 25.32 46.68 26 46 C25.01 45.67 24.02 45.34 23 45 Z M26 42 C26.66 42 27.32 42 28 42 C28 42.66 28 43.32 28 44 C27.34 44 26.68 44 26 44 C26 43.34 26 42.68 26 42 Z " fill="#0D7038" transform="translate(60,61)"/>
<path d="M0 0 C0.66 0.33 1.32 0.66 2 1 C2.495 2.485 2.495 2.485 3 4 C5.97 4.495 5.97 4.495 9 5 C9.33 4.34 9.66 3.68 10 3 C10 3.66 10 4.32 10 5 C15.01535052 4.67039784 15.01535052 4.67039784 19 2 C19 2.99 19 3.98 19 5 C20.65 4.34 22.3 3.68 24 3 C24.495 3.495 24.495 3.495 25 4 C25.66 3.34 26.32 2.68 27 2 C27.495 2.99 27.495 2.99 28 4 C28.9590625 3.7215625 28.9590625 3.7215625 29.9375 3.4375 C30.618125 3.293125 31.29875 3.14875 32 3 C32.495 3.495 32.495 3.495 33 4 C33.66 3.01 34.32 2.02 35 1 C35.99 2.485 35.99 2.485 37 4 C37.99 3.34 38.98 2.68 40 2 C40.99 2.99 40.99 2.99 42 4 C43.32 4 44.64 4 46 4 C46.66 2.68 47.32 1.36 48 0 C48.495 1.98 48.495 1.98 49 4 C49.66 3.67 50.32 3.34 51 3 C51.6875 4.8125 51.6875 4.8125 52 7 C50.48033819 9.15951941 49.54971533 9.90005176 46.9375 10.375 C46.298125 10.58125 45.65875 10.7875 45 11 C43.70339566 13.49034386 43.70339566 13.49034386 43 16 C42.505 15.01 42.505 15.01 42 14 C41.34 14 40.68 14 40 14 C40 14.66 40 15.32 40 16 C39.34 16 38.68 16 38 16 C37.67 16.66 37.34 17.32 37 18 C36.01 18 35.02 18 34 18 C32.97980427 18.9793879 31.97850195 19.97895449 31 21 C30.34 21 29.68 21 29 21 C25.4880485 22.20145709 22.93798717 23.77118215 20 26 C19.34 26 18.68 26 18 26 C17.67 26.66 17.34 27.32 17 28 C16.34 27.67 15.68 27.34 15 27 C15.495 27.763125 15.99 28.52625 16.5 29.3125 C18 32 18 32 18 35 C18.495 34.01 18.495 34.01 19 33 C23.95 33 28.9 33 34 33 C32.40726569 36.98183577 30.85033874 40.05267078 28.59375 43.6328125 C27.60181641 45.21255859 27.60181641 45.21255859 26.58984375 46.82421875 C25.90019531 47.91347656 25.21054688 49.00273438 24.5 50.125 C23.81035156 51.22199219 23.12070313 52.31898437 22.41015625 53.44921875 C17.49948489 61.25077266 17.49948489 61.25077266 15 65 C15.37089674 68.24835771 16.83864473 70.68208755 18.51171875 73.44921875 C19.02283203 74.29806641 19.53394531 75.14691406 20.06054688 76.02148438 C20.59744141 76.90126953 21.13433594 77.78105469 21.6875 78.6875 C22.20505859 79.54794922 22.72261719 80.40839844 23.25585938 81.29492188 C26.32768884 86.37128265 29.52217512 91.32641627 32.90942383 96.19848633 C34 98 34 98 34 100 C28.72 100 23.44 100 18 100 C15.99251627 96.23298069 13.99378045 92.46176231 12 88.6875 C11.42765625 87.61564453 10.8553125 86.54378906 10.265625 85.43945312 C9.72421875 84.41142578 9.1828125 83.38339844 8.625 82.32421875 C8.12226562 81.37635498 7.61953125 80.42849121 7.1015625 79.4519043 C6 77 6 77 6 74 C5.34 74 4.68 74 4 74 C3.88068115 74.568396 3.7613623 75.13679199 3.63842773 75.72241211 C2.94962596 78.17970915 1.98040417 80.18803852 0.78515625 82.44140625 C0.34623047 83.27220703 -0.09269531 84.10300781 -0.54492188 84.95898438 C-1.23424805 86.24772461 -1.23424805 86.24772461 -1.9375 87.5625 C-2.39318359 88.42552734 -2.84886719 89.28855469 -3.31835938 90.17773438 C-5.10986848 93.55353557 -6.87806232 96.81709349 -9 100 C-11.7885289 100.22107787 -14.34653181 100.28107535 -17.125 100.1875 C-18.25615234 100.16719727 -18.25615234 100.16719727 -19.41015625 100.14648438 C-21.27374127 100.11109985 -23.13695978 100.05729167 -25 100 C-20.5975793 91.6280326 -15.34336782 83.88193909 -10 76.08789062 C-9.34257813 75.10369141 -8.68515625 74.11949219 -8.0078125 73.10546875 C-7.10506592 71.77745239 -7.10506592 71.77745239 -6.18408203 70.42260742 C-4.81965794 68.14584516 -4.81965794 68.14584516 -5.14624023 65.98583984 C-6.17423504 63.59473039 -7.35049351 61.37623502 -8.65234375 59.12109375 C-9.18150391 58.20005859 -9.71066406 57.27902344 -10.25585938 56.33007812 C-10.81080078 55.37552734 -11.36574219 54.42097656 -11.9375 53.4375 C-12.48857422 52.47908203 -13.03964844 51.52066406 -13.60742188 50.53320312 C-15.66672948 46.96256893 -17.71297396 43.43053906 -20 40 C-19.649375 40.928125 -19.29875 41.85625 -18.9375 42.8125 C-18 46 -18 46 -19 49 C-22.5625 50.1875 -22.5625 50.1875 -26 51 C-26.84098656 55.01804691 -27.05404945 58.01803543 -26 62 C-25.34 62 -24.68 62 -24 62 C-24.66 63.98 -25.32 65.96 -26 68 C-26.495 67.01 -26.495 67.01 -27 66 C-27.66 65.67 -28.32 65.34 -29 65 C-29.12375 64.38125 -29.2475 63.7625 -29.375 63.125 C-30.19821471 60.32606997 -31.60184644 59.54719585 -34 58 C-34.99 58.66 -35.98 59.32 -37 60 C-36.9278125 60.75925781 -36.855625 61.51851562 -36.78125 62.30078125 C-36.6884375 63.29464844 -36.595625 64.28851563 -36.5 65.3125 C-36.4071875 66.29863281 -36.314375 67.28476563 -36.21875 68.30078125 C-36 71 -36 71 -36 74 C-36.99 74.99 -36.99 74.99 -38 76 C-40 74 -40 74 -40.125 70.875 C-40.08375 69.92625 -40.0425 68.9775 -40 68 C-40.66 68 -41.32 68 -42 68 C-42.33 66.68 -42.66 65.36 -43 64 C-44.32 64 -45.64 64 -47 64 C-47.309375 64.78375 -47.61875 65.5675 -47.9375 66.375 C-49.27510217 69.67966417 -50.83523967 72.17639957 -53 75 C-53.99 74.67 -54.98 74.34 -56 74 C-56.33 88.85 -56.66 103.7 -57 119 C-57.33 119 -57.66 119 -58 119 C-58.069511 105.41335745 -58.12281703 91.82675722 -58.15543652 78.23997307 C-58.17109224 71.93107701 -58.19232915 65.62230261 -58.22631836 59.31347656 C-58.25891462 53.22509693 -58.27685372 47.13683433 -58.28463173 41.04837418 C-58.29017471 38.72554812 -58.30099874 36.40272847 -58.31719017 34.07995224 C-58.33896753 30.82643543 -58.34196673 27.57340219 -58.34057617 24.31982422 C-58.351362 23.35956833 -58.36214783 22.39931244 -58.3732605 21.40995789 C-58.34511895 15.32488883 -57.62998548 10.82479922 -53.3125 6.1875 C-39.65114672 -0.82778952 -14.76953703 4.35954954 0 5 C0 3.35 0 1.7 0 0 Z M-31 57 C-31 57.66 -31 58.32 -31 59 C-30.34 59 -29.68 59 -29 59 C-29 58.34 -29 57.68 -29 57 C-29.66 57 -30.32 57 -31 57 Z M-34 60 C-33.01 60.33 -32.02 60.66 -31 61 C-31.99 61.66 -32.98 62.32 -34 63 C-34 62.01 -34 61.02 -34 60 Z " fill="#18854C" transform="translate(117,46)"/>
<path d="M0 0 C21.78356114 -0.07009727 43.56710367 -0.12299172 65.35075474 -0.15543652 C75.46540155 -0.17090196 85.57997826 -0.19198535 95.69458008 -0.22631836 C104.51100189 -0.25623055 113.32737292 -0.27557735 122.14384407 -0.28226548 C126.81161817 -0.28617465 131.47924703 -0.29535508 136.14697456 -0.31719017 C140.54230494 -0.33758404 144.93743052 -0.34382793 149.33280373 -0.33932304 C150.94404463 -0.34014695 152.55529254 -0.34609534 154.16649246 -0.35761642 C156.37134058 -0.37260634 158.57542175 -0.36893051 160.7802887 -0.36076355 C162.01272592 -0.36352893 163.24516314 -0.36629431 164.51494694 -0.36914349 C169.26505543 0.13399709 172.74025352 1.87012676 177 4 C177 66.7 177 129.4 177 194 C176.67 194 176.34 194 176 194 C175.67 148.79 175.34 103.58 175 57 C145.96 57 116.92 57 87 57 C86.25725776 53.28628882 85.87714176 50.52900579 85.88647461 46.8425293 C85.88659546 45.82799683 85.88671631 44.81346436 85.88684082 43.76818848 C85.89195679 42.71417847 85.89707275 41.66016846 85.90234375 40.57421875 C85.90335083 39.59634399 85.90435791 38.61846924 85.90539551 37.61096191 C85.9106143 33.96979596 85.92457556 30.32864676 85.9375 26.6875 C85.958125 18.540625 85.97875 10.39375 86 2 C57.62 1.67 29.24 1.34 0 1 C0 0.67 0 0.34 0 0 Z " fill="#39C584" transform="translate(125,0)"/>
<path d="M0 0 C0.02528819 7.79621694 0.04284068 15.59242336 0.05493164 23.38867188 C0.05997042 26.04264725 0.06680151 28.69661984 0.07543945 31.35058594 C0.08752489 35.15821011 0.09323275 38.96579769 0.09765625 42.7734375 C0.10281754 43.96617279 0.10797882 45.15890808 0.11329651 46.38778687 C0.11337204 47.48877716 0.11344757 48.58976746 0.11352539 49.72412109 C0.115746 50.69674896 0.11796661 51.66937683 0.12025452 52.67147827 C0 55 0 55 -1 57 C-30.04 57 -59.08 57 -89 57 C-89.73302333 53.33488335 -90.12600523 50.6013881 -90.12939453 46.96606445 C-90.13254669 45.99188065 -90.13569885 45.01769684 -90.13894653 44.01399231 C-90.1369223 42.97425766 -90.13489807 41.93452301 -90.1328125 40.86328125 C-90.13376923 39.78749313 -90.13472595 38.71170502 -90.13571167 37.60331726 C-90.136391 35.33474672 -90.13455397 33.06617421 -90.13037109 30.79760742 C-90.12500369 27.31489742 -90.13033252 23.83231546 -90.13671875 20.34960938 C-90.13605823 18.14583305 -90.13477762 15.9420568 -90.1328125 13.73828125 C-90.13483673 12.69247391 -90.13686096 11.64666656 -90.13894653 10.56916809 C-90.13579437 9.60444077 -90.13264221 8.63971344 -90.12939453 7.64575195 C-90.12859894 6.79479446 -90.12780334 5.94383698 -90.12698364 5.0670929 C-90 3 -90 3 -89 1 C-77.54349625 0.8695497 -66.08699182 0.73915997 -54.63048649 0.60884857 C-49.31135588 0.54834448 -43.99222552 0.48781916 -38.6730957 0.42724609 C-33.54436231 0.36884199 -28.4156283 0.31049263 -23.28689384 0.25218201 C-21.32558609 0.22987335 -19.36427857 0.20754461 -17.40297127 0.18519592 C-14.6658649 0.15401052 -11.92875775 0.12289508 -9.19165039 0.09179688 C-7.96274582 0.07777077 -7.96274582 0.07777077 -6.70901489 0.0634613 C-1.11405216 0 -1.11405216 0 0 0 Z " fill="#1FA063" transform="translate(301,56)"/>
<path d="M0 0 C1.15884201 -0.00412399 1.15884201 -0.00412399 2.34109497 -0.0083313 C3.59050621 0.00245453 3.59050621 0.00245453 4.86515808 0.01345825 C5.75346313 0.0131662 6.64176819 0.01287415 7.55699158 0.01257324 C10.48427704 0.01396321 13.41130591 0.0295088 16.33854675 0.04519653 C18.37164165 0.04892784 20.40473835 0.05177426 22.43783569 0.05377197 C27.78243496 0.06139911 33.1269251 0.08103977 38.47148132 0.10317993 C44.88755285 0.12726017 51.30366091 0.13642372 57.71976471 0.14808655 C67.46125748 0.16746462 77.20251092 0.20579371 86.9440155 0.24050903 C86.9440155 18.72050903 86.9440155 37.20050903 86.9440155 56.24050903 C64.09455314 56.24050903 64.09455314 56.24050903 60.01823425 52.69754028 C56.04871627 49.52495221 53.64953966 49.63487855 48.7565155 49.92800903 C48.04559753 49.95056763 47.33467957 49.97312622 46.60221863 49.99636841 C44.7154185 50.05849259 42.8295691 50.14797914 40.9440155 50.24050903 C24.9440155 50.24050903 8.9440155 50.24050903 -7.0559845 50.24050903 C-7.3859845 48.59050903 -7.7159845 46.94050903 -8.0559845 45.24050903 C-8.0559845 46.89050903 -8.0559845 48.54050903 -8.0559845 50.24050903 C-14.9859845 49.74550903 -14.9859845 49.74550903 -22.0559845 49.24050903 C-21.3959845 48.58050903 -20.7359845 47.92050903 -20.0559845 47.24050903 C-17.00214571 47.2735831 -14.08727554 47.80746746 -11.0559845 48.24050903 C-11.0559845 43.62050903 -11.0559845 39.00050903 -11.0559845 34.24050903 C-10.7259845 34.24050903 -10.3959845 34.24050903 -10.0559845 34.24050903 C-9.7259845 23.68050903 -9.3959845 13.12050903 -9.0559845 2.24050903 C-3.4309845 -0.00949097 -3.4309845 -0.00949097 0 0 Z " fill="#21A064" transform="translate(125.05598449707031,0.759490966796875)"/>
<path d="M0 0 C0.33 0 0.66 0 1 0 C1.33 19.47 1.66 38.94 2 59 C2.66 59 3.32 59 4 59 C4.28875 58.401875 4.5775 57.80375 4.875 57.1875 C6 55 6 55 8 52 C8.68177416 50.67432801 9.35191436 49.34246312 10 48 C10.66 48.33 11.32 48.66 12 49 C12.33 48.34 12.66 47.68 13 47 C13.99 47.99 14.98 48.98 16 50 C15.67 50.99 15.34 51.98 15 53 C15.66 53 16.32 53 17 53 C17.66 55.31 18.32 57.62 19 60 C19 59.01 19 58.02 19 57 C19.33 56.01 19.66 55.02 20 54 C19.8678857 51.77266454 19.8678857 51.77266454 19.5 49.4375 C18.89044586 45.21910828 18.89044586 45.21910828 20 43 C21.75 42.0625 21.75 42.0625 24 42 C27.16368164 44.63640136 29.4404735 47.17207132 31 51 C31 50.34 31 49.68 31 49 C31.33 48.67 31.66 48.34 32 48 C31.01 47.34 30.02 46.68 29 46 C29.33 45.01 29.66 44.02 30 43 C30 42.01 30 41.02 30 40 C30.31088368 38.32900023 30.64080332 36.66128463 31 35 C31.969375 34.731875 32.93875 34.46375 33.9375 34.1875 C35.4534375 33.5996875 35.4534375 33.5996875 37 33 C37.33 32.01 37.66 31.02 38 30 C37.34 29.01 36.68 28.02 36 27 C36.495 25.515 36.495 25.515 37 24 C39.46484229 27.92621123 41.92442991 31.85540314 44.37109375 35.79296875 C45.90058666 38.25235818 47.45018956 40.68867769 49.03515625 43.11328125 C49.58042969 43.96277344 50.12570313 44.81226563 50.6875 45.6875 C51.16574219 46.41324219 51.64398438 47.13898438 52.13671875 47.88671875 C53.32108795 50.78601167 53.0287866 52.03952548 52 55 C50.56131097 57.3949605 49.0982941 59.65545485 47.5 61.9375 C46.59525011 63.25966184 45.69163221 64.58259891 44.7890625 65.90625 C44.32790039 66.57914062 43.86673828 67.25203125 43.39160156 67.9453125 C41.1610797 71.23865846 39.01617073 74.58563082 36.875 77.9375 C36.48505859 78.54650146 36.09511719 79.15550293 35.69335938 79.78295898 C34.79439973 81.18788934 33.8970071 82.5938222 33 84 C36.63 84.33 40.26 84.66 44 85 C44 85.33 44 85.66 44 86 C38.06 86.495 38.06 86.495 32 87 C33.32 87.66 34.64 88.32 36 89 C38.1519437 92.22791555 38.20086443 93.28400809 38 97 C39.32 97.66 40.64 98.32 42 99 C42 99.66 42 100.32 42 101 C41.34 101 40.68 101 40 101 C39.73445313 101.57363281 39.46890625 102.14726562 39.1953125 102.73828125 C37.94732458 105.09967017 36.51195373 107.08002092 34.875 109.1875 C32.8826896 111.36360457 32.8826896 111.36360457 32 114 C28.31256766 114.05850924 24.6252563 114.09376673 20.9375 114.125 C19.89916016 114.14175781 18.86082031 114.15851563 17.79101562 114.17578125 C11.30650257 114.21695276 5.88523296 113.94261648 0 111 C0 74.37 0 37.74 0 0 Z M23 45 C23.33 45.99 23.66 46.98 24 48 C24.66 47.34 25.32 46.68 26 46 C25.01 45.67 24.02 45.34 23 45 Z M26 42 C26.66 42 27.32 42 28 42 C28 42.66 28 43.32 28 44 C27.34 44 26.68 44 26 44 C26 43.34 26 42.68 26 42 Z " fill="#107C41" transform="translate(60,61)"/>
<path d="M0 0 C1.66611905 -0.042721 3.33382885 -0.04063832 5 0 C6.77197596 1.77197596 6.17107758 4.34340767 6.20532227 6.74584961 C6.23523254 8.60835358 6.23523254 8.60835358 6.26574707 10.50848389 C6.28279735 11.88976849 6.29967853 13.2710552 6.31640625 14.65234375 C6.33709592 16.08531186 6.35813976 17.51827489 6.3795166 18.95123291 C6.43557422 22.81284838 6.48484631 26.6745229 6.53242874 30.53625107 C6.5623796 32.92788587 6.59421432 35.31948817 6.62667847 37.71109009 C7.00215822 65.47489884 7.11536025 93.23367455 7 121 C7 121.99 7 122.98 7 124 C5.78133552 127.96065955 4.15942902 130.31927234 1 133 C-1.872755 133.957585 -3.62234528 134.11670949 -6.60058594 134.09765625 C-7.99914825 134.09270142 -7.99914825 134.09270142 -9.42596436 134.08764648 C-10.43523987 134.07934814 -11.44451538 134.0710498 -12.484375 134.0625 C-13.53216125 134.05871338 -14.57994751 134.05492676 -15.65948486 134.05102539 C-20.13908742 134.03473562 -24.61859841 134.00692998 -29.09814453 133.97949219 C-32.37272323 133.96114721 -35.6472601 133.94739048 -38.921875 133.9375 C-39.97628784 133.93427734 -41.03070068 133.93105469 -42.11706543 133.92773438 C-49.28766044 133.93224684 -56.36863605 134.23216049 -63.50878906 134.87890625 C-64.33088867 134.91886719 -65.15298828 134.95882812 -66 135 C-66.33 134.67 -66.66 134.34 -67 134 C-67.33 142.91 -67.66 151.82 -68 161 C-68.33 161 -68.66 161 -69 161 C-69 147.47 -69 133.94 -69 120 C-69.66 119.67 -70.32 119.34 -71 119 C-65.88350458 117.310198 -61.36134804 116.73647961 -55.9609375 116.83984375 C-55.20555695 116.84563446 -54.45017639 116.85142517 -53.67190552 116.85739136 C-52.06614537 116.87009056 -50.46041331 116.88692681 -48.85473633 116.90762329 C-44.69234279 116.95777323 -40.52983644 116.96488746 -36.3671875 116.9765625 C-35.14494476 116.98092064 -35.14494476 116.98092064 -33.89801025 116.98536682 C-27.42959388 117.00632237 -20.96623887 117.00394647 -14.5 116.8125 C-13.68450684 116.80661865 -12.86901367 116.8007373 -12.02880859 116.79467773 C-8.3744678 116.65217194 -6.27781991 116.20532395 -3.31407166 114.01495361 C-0.20247674 109.96092429 -0.2257455 107.03700497 -0.19360352 102.05371094 C-0.16946916 101.1751733 -0.1453348 100.29663567 -0.12046909 99.39147568 C-0.05258279 96.59402821 -0.02227738 93.79815468 0 91 C0.01172871 90.11903152 0.02345741 89.23806305 0.03554153 88.33039856 C0.11896837 81.93341949 0.11551661 75.53799974 0.09765625 69.140625 C0.0957845 67.12896765 0.09436419 65.11730983 0.09336853 63.10565186 C0.08960282 57.88460975 0.07982554 52.66359675 0.06866455 47.44256592 C0.05832038 42.08541253 0.05384344 36.72825431 0.04882812 31.37109375 C0.0381961 20.91404991 0.02119395 10.4570274 0 0 Z " fill="#0D4225" transform="translate(183,57)"/>
<path d="M0 0 C5.28 0 10.56 0 16 0 C19.96 7.92 23.92 15.84 28 24 C30.21047872 21.05269504 31.95841866 18.42925517 33.69921875 15.234375 C34.18583984 14.34492187 34.67246094 13.45546875 35.17382812 12.5390625 C35.9230957 11.15847656 35.9230957 11.15847656 36.6875 9.75 C37.19861328 8.81414062 37.70972656 7.87828125 38.23632812 6.9140625 C39.49367052 4.61089325 40.74720808 2.30564761 42 0 C46.95 0 51.9 0 57 0 C55.40726569 3.98183577 53.85033874 7.05267078 51.59375 10.6328125 C50.93246094 11.68597656 50.27117187 12.73914063 49.58984375 13.82421875 C48.90019531 14.91347656 48.21054688 16.00273438 47.5 17.125 C46.81035156 18.22199219 46.12070313 19.31898437 45.41015625 20.44921875 C40.49948489 28.25077266 40.49948489 28.25077266 38 32 C38.37089674 35.24835771 39.83864473 37.68208755 41.51171875 40.44921875 C42.02283203 41.29806641 42.53394531 42.14691406 43.06054688 43.02148438 C43.86588867 44.34116211 43.86588867 44.34116211 44.6875 45.6875 C45.20505859 46.54794922 45.72261719 47.40839844 46.25585938 48.29492188 C49.32768884 53.37128265 52.52217512 58.32641627 55.90942383 63.19848633 C57 65 57 65 57 67 C51.72 67 46.44 67 41 67 C38.99251627 63.23298069 36.99378045 59.46176231 35 55.6875 C34.42765625 54.61564453 33.8553125 53.54378906 33.265625 52.43945312 C32.72421875 51.41142578 32.1828125 50.38339844 31.625 49.32421875 C31.12226562 48.37635498 30.61953125 47.42849121 30.1015625 46.4519043 C29 44 29 44 29 41 C28.34 41 27.68 41 27 41 C26.88068115 41.568396 26.7613623 42.13679199 26.63842773 42.72241211 C25.94962596 45.17970915 24.98040417 47.18803852 23.78515625 49.44140625 C23.12676758 50.68760742 23.12676758 50.68760742 22.45507812 51.95898438 C21.99552734 52.81814453 21.53597656 53.67730469 21.0625 54.5625 C20.60681641 55.42552734 20.15113281 56.28855469 19.68164062 57.17773438 C17.89013152 60.55353557 16.12193768 63.81709349 14 67 C11.2114711 67.22107787 8.65346819 67.28107535 5.875 67.1875 C4.74384766 67.16719727 4.74384766 67.16719727 3.58984375 67.14648438 C1.72625873 67.11109985 -0.13695978 67.05729167 -2 67 C2.4024207 58.6280326 7.65663218 50.88193909 13 43.08789062 C13.98613281 41.6115918 13.98613281 41.6115918 14.9921875 40.10546875 C15.59401855 39.22012451 16.19584961 38.33478027 16.81591797 37.42260742 C18.18245485 35.14403728 18.18245485 35.14403728 17.84716797 32.97485352 C16.84954948 30.64928119 15.71742328 28.49036689 14.453125 26.296875 C13.6796875 24.94916016 13.6796875 24.94916016 12.890625 23.57421875 C12.34921875 22.64222656 11.8078125 21.71023437 11.25 20.75 C10.46109375 19.37521484 10.46109375 19.37521484 9.65625 17.97265625 C6.84298778 13.09122849 3.96171739 8.28069271 0.87402344 3.56738281 C0 2 0 2 0 0 Z " fill="#F8FBFA" transform="translate(94,79)"/>
<path d="M0 0 C0.94875 0.04125 1.8975 0.0825 2.875 0.125 C2.875 0.785 2.875 1.445 2.875 2.125 C3.514375 2.434375 4.15375 2.74375 4.8125 3.0625 C6.875 4.125 6.875 4.125 7.875 5.125 C10.185 5.455 12.495 5.785 14.875 6.125 C14.875 24.935 14.875 43.745 14.875 63.125 C12.895 63.125 10.915 63.125 8.875 63.125 C8.545 44.975 8.215 26.825 7.875 8.125 C5.895 8.125 3.915 8.125 1.875 8.125 C1.5346875 7.196875 1.5346875 7.196875 1.1875 6.25 C-0.50429835 3.51089791 -2.11744161 3.07475528 -5.125 2.125 C-3.125 0.125 -3.125 0.125 0 0 Z " fill="#0B6F36" transform="translate(180.125,49.875)"/>
<path d="M0 0 C0 1.65 0 3.3 0 5 C0.66 5.33 1.32 5.66 2 6 C1.34 7.32 0.68 8.64 0 10 C-0.33 9.67 -0.66 9.34 -1 9 C-1.33 9.66 -1.66 10.32 -2 11 C-1.01 11 -0.02 11 1 11 C1.66 12.65 2.32 14.3 3 16 C2.01 16.33 1.02 16.66 0 17 C-0.33 17.99 -0.66 18.98 -1 20 C-0.67 20.66 -0.34 21.32 0 22 C-3.12498063 22.02895976 -6.2499269 22.04678483 -9.375 22.0625 C-10.26445313 22.07087891 -11.15390625 22.07925781 -12.0703125 22.08789062 C-13.34648438 22.09272461 -13.34648438 22.09272461 -14.6484375 22.09765625 C-15.82672119 22.10551147 -15.82672119 22.10551147 -17.02880859 22.11352539 C-19 22 -19 22 -21 21 C-22.05701626 17.42240652 -22.28160315 15.63360708 -20.75 12.1875 C-18.36800284 9.21000355 -15.59232456 8.81117006 -12 8 C-11.34 8 -10.68 8 -10 8 C-9.67 7.01 -9.34 6.02 -9 5 C-8.34 6.32 -7.68 7.64 -7 9 C-6.731875 8.071875 -6.46375 7.14375 -6.1875 6.1875 C-3.88235294 0 -3.88235294 0 0 0 Z M5 9 C6.125 12.75 6.125 12.75 5 15 C4.34 14.67 3.68 14.34 3 14 C3.875 10.125 3.875 10.125 5 9 Z " fill="#0D743A" transform="translate(90,152)"/>
<path d="M0 0 C1.65 0.66 3.3 1.32 5 2 C4.67 2.66 4.34 3.32 4 4 C3.8427448 6.85955124 3.8427448 6.85955124 4.63061523 8.90332031 C5.13475035 11.76486187 4.29277408 13.02061032 2.91015625 15.546875 C2.45576172 16.39121094 2.00136719 17.23554687 1.53320312 18.10546875 C1.04787109 18.97816406 0.56253906 19.85085937 0.0625 20.75 C-0.65969727 22.08224609 -0.65969727 22.08224609 -1.39648438 23.44140625 C-2.58694956 25.63374808 -3.78833726 27.81932384 -5 30 C-8.19304314 25.91329557 -10.42492666 21.5546409 -12.75 16.9375 C-13.17410156 16.12216797 -13.59820312 15.30683594 -14.03515625 14.46679688 C-14.43089844 13.68240234 -14.82664062 12.89800781 -15.234375 12.08984375 C-15.59756836 11.37691162 -15.96076172 10.66397949 -16.33496094 9.92944336 C-17 8 -17 8 -16 5 C-15.67 6.32 -15.34 7.64 -15 9 C-14.01 9 -13.02 9 -12 9 C-11.67 8.34 -11.34 7.68 -11 7 C-10.01 6.67 -9.02 6.34 -8 6 C-7.67 6.99 -7.34 7.98 -7 9 C-2.73952281 5.97494614 -2.73952281 5.97494614 -0.125 1.6875 C-0.08375 1.130625 -0.0425 0.57375 0 0 Z M1 6 C2 8 2 8 2 8 Z " fill="#117F44" transform="translate(128,75)"/>
<path d="M0 0 C0.33 0 0.66 0 1 0 C1 68.31 1 136.62 1 207 C0.67 207 0.34 207 0 207 C0 138.69 0 70.38 0 0 Z " fill="#FFFFFF" transform="translate(303,9)"/>
<path d="M0 0 C0.33 0 0.66 0 1 0 C1 34.65 1 69.3 1 105 C0.67 105 0.34 105 0 105 C0 70.35 0 35.7 0 0 Z " fill="#FFFFFF" transform="translate(57,60)"/>
<path d="M0 0 C0.66 0 1.32 0 2 0 C2 0.66 2 1.32 2 2 C1.34 2 0.68 2 0 2 C0 1.34 0 0.68 0 0 Z M-1 2 C-1 5.77773318 -1.96765283 6.37439338 -4.5 9.0625 C-7.23444837 11.61867835 -7.23444837 11.61867835 -8 15 C-9.65 15 -11.3 15 -13 15 C-12.34 14.34 -11.68 13.68 -11 13 C-11.33 12.34 -11.66 11.68 -12 11 C-10.35142211 9.26899321 -8.76462394 7.83187424 -6.8125 6.4375 C-6.214375 5.963125 -5.61625 5.48875 -5 5 C-5 4.34 -5 3.68 -5 3 C-3.68 2.67 -2.36 2.34 -1 2 Z " fill="#208248" transform="translate(100,160)"/>
<path d="M0 0 C2 2 2 2 2.13525391 5.99072266 C2.09286195 7.71545949 2.03917982 9.43994148 1.9765625 11.1640625 C1.95153656 12.07127045 1.92651062 12.97847839 1.90072632 13.91317749 C1.81839936 16.81749134 1.72185934 19.72113795 1.625 22.625 C1.56677339 24.59111837 1.50946985 26.55726431 1.453125 28.5234375 C1.31280169 33.34934373 1.15972802 38.17469862 1 43 C0.67 43 0.34 43 0 43 C0 29.47 0 15.94 0 2 C-0.66 1.67 -1.32 1.34 -2 1 C-1.34 0.67 -0.68 0.34 0 0 Z " fill="#FFFFFF" transform="translate(114,175)"/>
<path d="M0 0 C0.94875 0.04125 1.8975 0.0825 2.875 0.125 C2.875 0.785 2.875 1.445 2.875 2.125 C3.514375 2.393125 4.15375 2.66125 4.8125 2.9375 C6.875 4.125 6.875 4.125 7.875 7.125 C5.895 7.455 3.915 7.785 1.875 8.125 C1.5346875 7.196875 1.5346875 7.196875 1.1875 6.25 C-0.50429835 3.51089791 -2.11744161 3.07475528 -5.125 2.125 C-3.125 0.125 -3.125 0.125 0 0 Z " fill="#136438" transform="translate(180.125,49.875)"/>
<path d="M0 0 C13.2 0 26.4 0 40 0 C40 0.33 40 0.66 40 1 C26.8 1 13.6 1 0 1 C0 0.67 0 0.34 0 0 Z " fill="#FFFFFF" transform="translate(68,176)"/>
<path d="M0 0 C-0.33 1.65 -0.66 3.3 -1 5 C-0.34 5.33 0.32 5.66 1 6 C0.01 6.33 -0.98 6.66 -2 7 C-2 5.35 -2 3.7 -2 2 C-2.99 2.33 -3.98 2.66 -5 3 C-7.33882138 2.70764733 -9.67284 2.37400786 -12 2 C-12.99 2 -13.98 2 -15 2 C-15.33 1.34 -15.66 0.68 -16 0 C-13.89651926 -0.19504458 -11.79217415 -0.38078496 -9.6875 -0.5625 C-8.51574219 -0.66691406 -7.34398438 -0.77132812 -6.13671875 -0.87890625 C-3 -1 -3 -1 0 0 Z " fill="#0D6D37" transform="translate(107,147)"/>
<path d="M0 0 C1.32 0.99 2.64 1.98 4 3 C1.63707344 5.52588702 0.33537489 6.88820837 -3 8 C-2.34 6.35 -1.68 4.7 -1 3 C-5.95 3 -10.9 3 -16 3 C-16 2.67 -16 2.34 -16 2 C-14.92878906 1.93941406 -13.85757813 1.87882812 -12.75390625 1.81640625 C-11.35675609 1.73201463 -9.95962143 1.64736594 -8.5625 1.5625 C-7.50192383 1.50352539 -7.50192383 1.50352539 -6.41992188 1.44335938 C-2.91309581 1.52375562 -2.91309581 1.52375562 0 0 Z " fill="#0D753A" transform="translate(152,76)"/>
<path d="M0 0 C10.56 0 21.12 0 32 0 C32 0.33 32 0.66 32 1 C21.44 1 10.88 1 0 1 C0 0.67 0 0.34 0 0 Z " fill="#FFFFFF" transform="translate(69,48)"/>
<path d="M0 0 C0.99 0 1.98 0 3 0 C4.125 2.25 4.125 2.25 5 5 C4.125 7.3125 4.125 7.3125 3 9 C2.67 7.35 2.34 5.7 2 4 C1.34 4.99 0.68 5.98 0 7 C-0.38133299 5.0085944 -0.71325582 3.00720923 -1 1 C-0.67 0.67 -0.34 0.34 0 0 Z " fill="#0B7137" transform="translate(110,142)"/>
<path d="M0 0 C2.64 0 5.28 0 8 0 C8 1.32 8 2.64 8 4 C5.36 4 2.72 4 0 4 C0 2.68 0 1.36 0 0 Z " fill="#1C975B" transform="translate(118,47)"/>
<path d="M0 0 C0.99 0.66 1.98 1.32 3 2 C3 2.99 3 3.98 3 5 C4.32 5.33 5.64 5.66 7 6 C3.7 5.67 0.4 5.34 -3 5 C-3.33 4.01 -3.66 3.02 -4 2 C-2.68 2.33 -1.36 2.66 0 3 C0 2.01 0 1.02 0 0 Z " fill="#3C8C5D" transform="translate(68,169)"/>
<path d="M0 0 C2.49361571 1.20381448 4.68143083 2.45428722 7 4 C2.375 6.125 2.375 6.125 -1 5 C-0.67 3.35 -0.34 1.7 0 0 Z " fill="#189054" transform="translate(187,49)"/>
<path d="M0 0 C0.33 0 0.66 0 1 0 C1 1.98 1 3.96 1 6 C0.67 6 0.34 6 0 6 C0 4.02 0 2.04 0 0 Z " fill="#FFFFFF" transform="translate(114,7)"/>
<path d="M0 0 C4 1 4 1 4 1 Z " fill="#FFFFFF" transform="translate(108,175)"/>
<path d="M0 0 C1 4 1 4 1 4 Z " fill="#FFFFFF" transform="translate(58,165)"/>
<path d="M0 0 C1 4 1 4 1 4 Z " fill="#FFFFFF" transform="translate(114,14)"/>
<path d="" fill="#FFFFFF" transform="translate(0,0)"/>
<path d="M0 0 C3 1 3 1 3 1 Z " fill="#FFFFFF" transform="translate(65,175)"/>
<path d="" fill="#FFFFFF" transform="translate(0,0)"/>
<path d="M0 0 C3 1 3 1 3 1 Z " fill="#FFFFFF" transform="translate(66,49)"/>
<path d="" fill="#FFFFFF" transform="translate(0,0)"/>
<path d="" fill="#FFFFFF" transform="translate(0,0)"/>
<path d="M0 0 C2 1 2 1 2 1 Z " fill="#FFFFFF" transform="translate(119,224)"/>
<path d="" fill="#FFFFFF" transform="translate(0,0)"/>
<path d="" fill="#FFFFFF" transform="translate(0,0)"/>
<path d="M0 0 C2 1 2 1 2 1 Z " fill="#FFFFFF" transform="translate(64,50)"/>
<path d="" fill="#FFFFFF" transform="translate(0,0)"/>
<path d="M0 0 C2 1 2 1 2 1 Z " fill="#FFFFFF" transform="translate(118,1)"/>
<path d="" fill="#FFFFFF" transform="translate(0,0)"/>
<path d="" fill="#FFFFFF" transform="translate(0,0)"/>
<path d="" fill="#FFFFFF" transform="translate(0,0)"/>
<path d="" fill="#FFFFFF" transform="translate(0,0)"/>
<path d="" fill="#FFFFFF" transform="translate(0,0)"/>
<path d="" fill="#FFFFFF" transform="translate(0,0)"/>
<path d="" fill="#FFFFFF" transform="translate(0,0)"/>
<path d="" fill="#FFFFFF" transform="translate(0,0)"/>
<path d="" fill="#FFFFFF" transform="translate(0,0)"/>
<path d="" fill="#FFFFFF" transform="translate(0,0)"/>
<path d="" fill="#FFFFFF" transform="translate(0,0)"/>
<path d="" fill="#FFFFFF" transform="translate(0,0)"/>
<path d="" fill="#FFFFFF" transform="translate(0,0)"/>
<path d="" fill="#FFFFFF" transform="translate(0,0)"/>
<path d="" fill="#FFFFFF" transform="translate(0,0)"/>
<path d="" fill="#FFFFFF" transform="translate(0,0)"/>
<path d="" fill="#FFFFFF" transform="translate(0,0)"/>
<path d="" fill="#FFFFFF" transform="translate(0,0)"/>
<path d="" fill="#FFFFFF" transform="translate(0,0)"/>
</svg>
