<?xml version="1.0" encoding="UTF-8"?>
<svg version="1.1" xmlns="http://www.w3.org/2000/svg" width="200" height="200">
<path d="M0 0 C1.1833065 -0.00262848 1.1833065 -0.00262848 2.39051819 -0.00531006 C4.99913733 -0.00971306 7.60768876 -0.00679659 10.21630859 -0.00341797 C12.02566542 -0.00409132 13.83502215 -0.0050616 15.64437866 -0.00631714 C19.43561668 -0.00779189 23.22683113 -0.00564616 27.01806641 -0.00097656 C31.88865845 0.00472873 36.7591955 0.00143526 41.62978554 -0.00454903 C45.3648419 -0.00815368 49.09988511 -0.00701664 52.83494186 -0.00442123 C54.63157533 -0.00375212 56.42820998 -0.00457984 58.22484207 -0.00690079 C60.72935425 -0.00942663 63.23377586 -0.00558808 65.73828125 0 C66.86193336 -0.00303635 66.86193336 -0.00303635 68.00828552 -0.00613403 C73.12548175 0.01513019 73.12548175 0.01513019 74.23974609 1.12939453 C74.32732612 3.12904435 74.34671186 5.13175563 74.33740234 7.13330078 C74.33256836 8.95571289 74.33256836 8.95571289 74.32763672 10.81494141 C74.31506836 12.7340332 74.31506836 12.7340332 74.30224609 14.69189453 C74.29773438 15.97515625 74.29322266 17.25841797 74.28857422 18.58056641 C74.27674155 21.76355475 74.26025678 24.94645215 74.23974609 28.12939453 C63.94430296 29.13479562 53.76020032 29.24988951 43.42724609 29.19189453 C41.84847149 29.186864 40.26969531 29.18230387 38.69091797 29.17822266 C34.87382089 29.16735269 31.05680154 29.15017589 27.23974609 29.12939453 C32.17080849 35.06597537 37.47404439 40.54702053 42.92724609 46.00439453 C44.20825195 47.30376953 44.20825195 47.30376953 45.51513672 48.62939453 C46.335625 49.45181641 47.15611328 50.27423828 48.00146484 51.12158203 C48.74356201 51.86778809 49.48565918 52.61399414 50.25024414 53.3828125 C52.21723035 55.33757718 52.21723035 55.33757718 55.23974609 56.12939453 C55.37476504 58.56873678 55.47378506 61.00063557 55.55224609 63.44189453 C55.59414062 64.1321875 55.63603516 64.82248047 55.67919922 65.53369141 C55.72802734 67.55517578 55.72802734 67.55517578 55.23974609 71.12939453 C53.59990257 72.1727981 51.92701913 73.16456942 50.23974609 74.12939453 C48.33745215 75.87046243 46.52050284 77.61438967 44.72021484 79.45361328 C43.9650634 80.21300957 43.9650634 80.21300957 43.19465637 80.98774719 C41.60072861 82.59279671 40.01392903 84.20468597 38.42724609 85.81689453 C37.34242445 86.91175632 36.25714254 88.00616227 35.17138672 89.10009766 C32.52215262 91.77128581 29.87928532 94.44862737 27.23974609 97.12939453 C28.10085243 97.14485573 28.10085243 97.14485573 28.97935486 97.16062927 C34.93240272 97.26846887 40.88529225 97.3830843 46.83813477 97.50170898 C49.06238506 97.54513041 51.28667024 97.58679998 53.51098633 97.62670898 C56.70062805 97.68423759 59.8900929 97.74798137 63.07958984 97.81298828 C64.58113869 97.83805702 64.58113869 97.83805702 66.11302185 97.8636322 C67.03390091 97.88357742 67.95477997 97.90352264 68.90356445 97.92407227 C69.7185289 97.93961655 70.53349335 97.95516083 71.37315369 97.97117615 C73.23974609 98.12939453 73.23974609 98.12939453 74.23974609 99.12939453 C74.32732612 101.12904435 74.34671186 103.13175563 74.33740234 105.13330078 C74.33256836 106.95571289 74.33256836 106.95571289 74.32763672 108.81494141 C74.31506836 110.7340332 74.31506836 110.7340332 74.30224609 112.69189453 C74.29773438 113.97515625 74.29322266 115.25841797 74.28857422 116.58056641 C74.27674155 119.76355475 74.26025678 122.94645215 74.23974609 126.12939453 C65.88664103 127.29434686 57.56286662 127.31137247 49.14599609 127.33251953 C48.38217117 127.33534691 47.61834625 127.33817429 46.83137512 127.34108734 C42.79448104 127.35599293 38.75762195 127.36527866 34.72070312 127.36962891 C30.5751157 127.37512231 26.42985522 127.3991933 22.28437042 127.42760086 C19.07227661 127.44630421 15.86026071 127.45143676 12.64811707 127.45296478 C11.12043965 127.45597097 9.59276294 127.46392986 8.06513977 127.47714996 C-12.04531863 127.63887117 -12.04531863 127.63887117 -19.76025391 121.12939453 C-20.70175689 116.92319938 -21.00534042 112.74402973 -21.13525391 108.44189453 C-21.18423828 107.32427734 -21.23322266 106.20666016 -21.28369141 105.05517578 C-20.76025391 102.12939453 -20.76025391 102.12939453 -18.29150391 100.37939453 C-17.45619141 99.96689453 -16.62087891 99.55439453 -15.76025391 99.12939453 C-15.32712891 97.98470703 -15.32712891 97.98470703 -14.88525391 96.81689453 C-13.19812342 92.78652725 -10.10476019 90.81596515 -6.76025391 88.12939453 C-0.91953919 83.36043299 4.37672343 78.11044242 9.67724609 72.75439453 C10.50417969 71.92294922 11.33111328 71.09150391 12.18310547 70.23486328 C14.2043014 68.20198413 16.22310944 66.1667949 18.23974609 64.12939453 C14.23068073 59.33043055 10.05084227 54.78111306 5.63427734 50.35595703 C5.02839279 49.74674408 4.42250824 49.13753113 3.79826355 48.50985718 C2.52981828 47.23639037 1.26005314 45.96423695 -0.01098633 44.69335938 C-1.95829972 42.74383675 -3.8974472 40.78642165 -5.83642578 38.82861328 C-7.07486897 37.58723973 -8.31378442 36.3463371 -9.55322266 35.10595703 C-10.13138229 34.52061188 -10.70954193 33.93526672 -11.30522156 33.33218384 C-13.76367658 30.88771018 -15.42533052 29.24103566 -18.76025391 28.12939453 C-19.38525391 26.25439453 -19.38525391 26.25439453 -19.76025391 24.12939453 C-20.09025391 23.13939453 -20.42025391 22.14939453 -20.76025391 21.12939453 C-20.82995443 18.73448467 -20.84473393 16.33771762 -20.82275391 13.94189453 C-20.81373047 12.66958984 -20.80470703 11.39728516 -20.79541016 10.08642578 C-20.78380859 9.11060547 -20.77220703 8.13478516 -20.76025391 7.12939453 C-20.16341797 6.84193359 -19.56658203 6.55447266 -18.95166016 6.25830078 C-16.55397253 5.07707889 -16.55397253 5.07707889 -13.69775391 3.06689453 C-9.0921586 0.02916145 -5.33621626 -0.01449794 0 0 Z " fill="#088A75" transform="translate(20.76025390625,35.87060546875)"/>
<path d="M0 0 C3.47855673 0.86963918 5.73778101 1.79849493 8.83203125 3.484375 C9.78352051 4.0007251 10.73500977 4.5170752 11.71533203 5.04907227 C12.73739746 5.61037842 13.75946289 6.17168457 14.8125 6.75 C15.87839355 7.33128662 16.94428711 7.91257324 18.04248047 8.51147461 C26.23088853 12.99186738 34.36212031 17.57007654 42.47607422 22.18359375 C50.00070363 26.45610749 57.58233287 30.61598779 65.18798828 34.7421875 C71.46208551 38.14926778 77.70090205 41.61280244 83.90405273 45.14746094 C86.69536671 46.73245346 89.41620307 48.17678996 92.375 49.43359375 C95 51 95 51 95.87109375 53.19921875 C96.03409924 56.7408834 96.1065914 60.26823006 96.0625 63.8125 C96.05798828 64.50537109 96.05347656 65.19824219 96.04882812 65.91210938 C96.03713156 67.60811068 96.01919924 69.30406703 96 71 C95.13459595 71.41088867 95.13459595 71.41088867 94.25170898 71.83007812 C92.02168752 72.9887318 90.03613965 74.28691546 87.97265625 75.71875 C82.63885883 79.31305281 77.06974452 82.40213262 71.4375 85.5 C62.93917572 90.21341432 54.50028527 95.00884283 46.125 99.9375 C34.0905614 107.01143117 21.89671398 113.77885234 9.6652832 120.50463867 C7.84552451 121.52561715 6.05001778 122.59074596 4.27807617 123.69262695 C2 125 2 125 0 125 C-1.78631832 115.75138596 -3.15430934 106.06514444 0 97 C5.72591029 90.27175531 14.16790578 86.64622723 22.02410889 82.92236328 C28.66643636 79.77066429 34.82099311 75.96645928 41.02130127 72.03063965 C43.76444314 70.29601864 46.5314873 68.601261 49.296875 66.90234375 C50.86466238 65.93502393 52.43240402 64.96762995 54 64 C53.8908544 61.60573234 53.8908544 61.60573234 53 59 C50.79635742 57.12527717 50.79635742 57.12527717 47.91796875 55.65234375 C46.84981934 55.05268799 45.78166992 54.45303223 44.68115234 53.83520508 C43.52824707 53.2089624 42.3753418 52.58271973 41.1875 51.9375 C39.40562944 50.94612653 37.6270435 49.94901785 35.84838867 48.95188904 C34.64688181 48.27910109 33.44423589 47.60834343 32.24047852 46.93959045 C25.89264758 43.40859329 19.69159351 39.64806246 13.49682617 35.85717773 C12.75279541 35.40544189 12.00876465 34.95370605 11.2421875 34.48828125 C10.29641846 33.90880737 10.29641846 33.90880737 9.33154297 33.31762695 C5.95951867 31.41199186 2.46433173 29.73216587 -1 28 C-0.67 18.76 -0.34 9.52 0 0 Z " fill="#315163" transform="translate(104,37)"/>
<path d="M0 0 C1.1833065 -0.00284752 1.1833065 -0.00284752 2.39051819 -0.00575256 C4.99921592 -0.0094588 7.60763559 0.00124005 10.21630859 0.01245117 C12.02566495 0.01364297 13.83502193 0.01409613 15.64437866 0.01383972 C19.43564732 0.01540422 23.22682151 0.02369265 27.01806641 0.03710938 C31.88866525 0.05412341 36.75916046 0.05792302 41.62978554 0.05716419 C45.36484779 0.05743547 49.09988719 0.06290948 52.83494186 0.07016563 C54.63157351 0.07335727 56.42820775 0.07532086 58.22484207 0.07605934 C60.72936717 0.07821631 63.23378007 0.08694577 65.73828125 0.09765625 C66.48738266 0.09720306 67.23648407 0.09674988 68.00828552 0.09628296 C73.12526993 0.12844376 73.12526993 0.12844376 74.23974609 1.24291992 C74.32732612 3.24256974 74.34671186 5.24528102 74.33740234 7.24682617 C74.33256836 9.06923828 74.33256836 9.06923828 74.32763672 10.9284668 C74.31506836 12.84755859 74.31506836 12.84755859 74.30224609 14.80541992 C74.29773438 16.08868164 74.29322266 17.37194336 74.28857422 18.6940918 C74.27674155 21.87708014 74.26025678 25.05997754 74.23974609 28.24291992 C63.94430296 29.24832101 53.76020032 29.3634149 43.42724609 29.30541992 C41.84847149 29.30038939 40.26969531 29.29582926 38.69091797 29.29174805 C34.87382089 29.28087808 31.05680154 29.26370128 27.23974609 29.24291992 C28.22974609 30.89291992 29.21974609 32.54291992 30.23974609 34.24291992 C29.57974609 34.24291992 28.91974609 34.24291992 28.23974609 34.24291992 C27.74474609 35.23291992 27.74474609 35.23291992 27.23974609 36.24291992 C27.08505859 35.28385742 27.08505859 35.28385742 26.92724609 34.30541992 C26.70037109 33.62479492 26.47349609 32.94416992 26.23974609 32.24291992 C25.24974609 31.91291992 24.25974609 31.58291992 23.23974609 31.24291992 C23.23974609 29.92291992 23.23974609 28.60291992 23.23974609 27.24291992 C39.40974609 27.24291992 55.57974609 27.24291992 72.23974609 27.24291992 C72.23974609 18.99291992 72.23974609 10.74291992 72.23974609 2.24291992 C44.84974609 2.24291992 17.45974609 2.24291992 -10.76025391 2.24291992 C-7.06508705 -0.22052465 -4.27263646 -0.03222604 0 0 Z " fill="#75B3AA" transform="translate(20.76025390625,35.757080078125)"/>
<path d="M0 0 C0.33 0 0.66 0 1 0 C1 8.91 1 17.82 1 27 C-13.9405358 28.14927198 -13.9405358 28.14927198 -20.70703125 28.09765625 C-21.81143806 28.09553383 -21.81143806 28.09553383 -22.93815613 28.09336853 C-25.22965023 28.08788791 -27.52103677 28.07536112 -29.8125 28.0625 C-31.3912746 28.05746947 -32.97005078 28.05290934 -34.54882812 28.04882812 C-38.3659252 28.03795816 -42.18294455 28.02078136 -46 28 C-45.01 29.65 -44.02 31.3 -43 33 C-43.66 33 -44.32 33 -45 33 C-45.33 33.66 -45.66 34.32 -46 35 C-46.103125 34.360625 -46.20625 33.72125 -46.3125 33.0625 C-46.539375 32.381875 -46.76625 31.70125 -47 31 C-47.99 30.67 -48.98 30.34 -50 30 C-50 28.68 -50 27.36 -50 26 C-33.5 26 -17 26 0 26 C0 17.42 0 8.84 0 0 Z " fill="#74BCB3" transform="translate(94,37)"/>
<path d="M0 0 C3.7895406 0.94738515 6.37009279 2.17136144 9.75 4.0625 C10.73484375 4.61035156 11.7196875 5.15820312 12.734375 5.72265625 C13.48203125 6.14417969 14.2296875 6.56570312 15 7 C15 7.33 15 7.66 15 8 C13.948125 7.979375 12.89625 7.95875 11.8125 7.9375 C8.66120194 7.98916062 6.04634328 8.30369296 3 9 C2.34 9 1.68 9 1 9 C1 15.27 1 21.54 1 28 C0.34 27.67 -0.32 27.34 -1 27 C-0.67 18.09 -0.34 9.18 0 0 Z " fill="#607782" transform="translate(104,37)"/>
<path d="M0 0 C27.06 0 54.12 0 82 0 C82 0.33 82 0.66 82 1 C54.94 1 27.88 1 0 1 C0 0.67 0 0.34 0 0 Z " fill="#FFFFFF" transform="translate(12,34)"/>
<path d="M0 0 C21.78 0.495 21.78 0.495 44 1 C44 1.33 44 1.66 44 2 C29.15 2 14.3 2 -1 2 C-0.67 1.34 -0.34 0.68 0 0 Z " fill="#FFFFFF" transform="translate(50,131)"/>
<path d="M0 0 C14.19 0 28.38 0 43 0 C43 0.33 43 0.66 43 1 C22.21 1.495 22.21 1.495 1 2 C0.67 1.34 0.34 0.68 0 0 Z " fill="#FFFFFF" transform="translate(49,66)"/>
<path d="M0 0 C7.92 0.33 15.84 0.66 24 1 C24 1.33 24 1.66 24 2 C17.4 2 10.8 2 4 2 C4.99 3.65 5.98 5.3 7 7 C6.34 7 5.68 7 5 7 C4.67 7.66 4.34 8.32 4 9 C3.896875 8.360625 3.79375 7.72125 3.6875 7.0625 C3.460625 6.381875 3.23375 5.70125 3 5 C2.01 4.67 1.02 4.34 0 4 C0 2.68 0 1.36 0 0 Z " fill="#9BCEC7" transform="translate(44,63)"/>
<path d="M0 0 C1.32 0.66 2.64 1.32 4 2 C1.07096942 4.33364352 -1.88568203 6.04960836 -5.25 7.6875 C-6.58804688 8.34298828 -6.58804688 8.34298828 -7.953125 9.01171875 C-8.62859375 9.33785156 -9.3040625 9.66398438 -10 10 C-10 9.01 -10 8.02 -10 7 C-8.3203125 5.578125 -8.3203125 5.578125 -6.125 4.25 C-5.04605469 3.57710937 -5.04605469 3.57710937 -3.9453125 2.890625 C-3.30335938 2.59671875 -2.66140625 2.3028125 -2 2 C-1.34 2.33 -0.68 2.66 0 3 C0 2.01 0 1.02 0 0 Z " fill="#516875" transform="translate(150,132)"/>
<path d="M0 0 C3.21524305 1.40844718 5.32183868 3.10344786 7.75 5.625 C8.67039062 6.57246094 8.67039062 6.57246094 9.609375 7.5390625 C10.29773438 8.26222656 10.29773438 8.26222656 11 9 C10.01 9.33 9.02 9.66 8 10 C5.8125 8.6875 5.8125 8.6875 4 7 C4 6.34 4 5.68 4 5 C2.35 5 0.7 5 -1 5 C-0.67 3.35 -0.34 1.7 0 0 Z " fill="#50AA9B" transform="translate(50,70)"/>
<path d="M0 0 C0.33 0.99 0.66 1.98 1 3 C0.01 4.485 0.01 4.485 -1 6 C-1.02529705 8.16202424 -1.02529705 8.16202424 -0.625 10.4375 C-0.19443391 13.39639023 0 15.97443782 0 19 C-2 18 -2 18 -3 15 C-3.06970052 12.60509014 -3.08448003 10.20832309 -3.0625 7.8125 C-3.05347656 6.54019531 -3.04445312 5.26789062 -3.03515625 3.95703125 C-3.02355469 2.98121094 -3.01195312 2.00539062 -3 1 C-2.01 0.67 -1.02 0.34 0 0 Z " fill="#3EA291" transform="translate(3,42)"/>
<path d="M0 0 C3.625 -0.1875 3.625 -0.1875 7 0 C4.07096942 2.33364352 1.11431797 4.04960836 -2.25 5.6875 C-3.58804688 6.34298828 -3.58804688 6.34298828 -4.953125 7.01171875 C-5.96632812 7.50091797 -5.96632812 7.50091797 -7 8 C-7 7.01 -7 6.02 -7 5 C-6.21625 4.731875 -5.4325 4.46375 -4.625 4.1875 C-1.71885077 3.15185568 -1.71885077 3.15185568 0 0 Z " fill="#526675" transform="translate(168,122)"/>
<path d="M0 0 C0.66 0.33 1.32 0.66 2 1 C2 4.96 2 8.92 2 13 C1.01 13.33 0.02 13.66 -1 14 C-1.02685938 11.85423363 -1.04633088 9.70837355 -1.0625 7.5625 C-1.07410156 6.36753906 -1.08570312 5.17257813 -1.09765625 3.94140625 C-1 1 -1 1 0 0 Z " fill="#5EB3A7" transform="translate(1,137)"/>
<path d="M0 0 C10.23 0 20.46 0 31 0 C31 0.33 31 0.66 31 1 C20.77 1 10.54 1 0 1 C0 0.67 0 0.34 0 0 Z " fill="#FFFFFF" transform="translate(62,164)"/>
<path d="M0 0 C0.33 0 0.66 0 1 0 C1 8.91 1 17.82 1 27 C0.67 27 0.34 27 0 27 C0 18.09 0 9.18 0 0 Z " fill="#FFFFFF" transform="translate(102,37)"/>
<path d="M0 0 C0.33 0 0.66 0 1 0 C1 8.58 1 17.16 1 26 C0.67 26 0.34 26 0 26 C0 17.42 0 8.84 0 0 Z " fill="#FFFFFF" transform="translate(102,135)"/>
<path d="M0 0 C0.33 0 0.66 0 1 0 C1 8.58 1 17.16 1 26 C0.67 26 0.34 26 0 26 C0 17.42 0 8.84 0 0 Z " fill="#FFFFFF" transform="translate(96,135)"/>
<path d="M0 0 C1.2065625 0.0309375 1.2065625 0.0309375 2.4375 0.0625 C1.1175 1.3825 -0.2025 2.7025 -1.5625 4.0625 C0.9125 5.0525 0.9125 5.0525 3.4375 6.0625 C3.4375 6.3925 3.4375 6.7225 3.4375 7.0625 C1.43795254 7.10504356 -0.56291636 7.10330783 -2.5625 7.0625 C-3.5625 6.0625 -3.5625 6.0625 -3.6875 3.5625 C-3.51717518 0.15600356 -3.41884482 0.08338646 0 0 Z " fill="#2B9283" transform="translate(47.5625,129.9375)"/>
<path d="M0 0 C0.33 0 0.66 0 1 0 C1 8.58 1 17.16 1 26 C0.67 26 0.34 26 0 26 C0 17.42 0 8.84 0 0 Z " fill="#FFFFFF" transform="translate(96,37)"/>
<path d="M0 0 C0.33 1.32 0.66 2.64 1 4 C-0.9375 6.25 -0.9375 6.25 -3 8 C-3.99 7.34 -4.98 6.68 -6 6 C-4.02 4.02 -2.04 2.04 0 0 Z " fill="#299381" transform="translate(9,131)"/>
<path d="M0 0 C0 3.99904969 -1.72586967 5.80200422 -4 9 C-5.32 8.67 -6.64 8.34 -8 8 C-5.36 5.36 -2.72 2.72 0 0 Z " fill="#55AA9C" transform="translate(33,106)"/>
<path d="M0 0 C1.32 0.33 2.64 0.66 4 1 C3.5206753 5.31392226 2.2542015 7.16569547 -1 10 C-1.66 9.67 -2.32 9.34 -3 9 C-1.35 7.02 0.3 5.04 2 3 C1.34 2.01 0.68 1.02 0 0 Z " fill="#4AA494" transform="translate(37,96)"/>
<path d="M0 0 C1.32 0 2.64 0 4 0 C4.33 0.99 4.66 1.98 5 3 C3.35 4.32 1.7 5.64 0 7 C0 4.69 0 2.38 0 0 Z " fill="#3BA192" transform="translate(50,123)"/>
<path d="M0 0 C1.98 0 3.96 0 6 0 C4.38405168 2.04119788 2.7143618 4.04072937 1 6 C0.34 6 -0.32 6 -1 6 C-0.67 4.02 -0.34 2.04 0 0 Z " fill="#294C5F" transform="translate(154,105)"/>
<path d="M0 0 C3.77545388 1.09068668 6.47043472 1.9083091 9 5 C8.01 5.33 7.02 5.66 6 6 C5.01 5.34 4.02 4.68 3 4 C2.01 3.67 1.02 3.34 0 3 C0 2.01 0 1.02 0 0 Z " fill="#5D7481" transform="translate(126,49)"/>
<path d="M0 0 C0.66 0.33 1.32 0.66 2 1 C0.71034824 2.37562854 -0.62689293 3.70766393 -2 5 C-2.66 5 -3.32 5 -4 5 C-4.33 5.66 -4.66 6.32 -5 7 C-5.99 6.67 -6.98 6.34 -8 6 C-5.38485683 3.87961365 -2.80362384 1.86908256 0 0 Z " fill="#647781" transform="translate(135,115)"/>
<path d="M0 0 C0.66 0 1.32 0 2 0 C2.33 0.99 2.66 1.98 3 3 C1.35 4.32 -0.3 5.64 -2 7 C-2.125 4.625 -2.125 4.625 -2 2 C-1.34 1.34 -0.68 0.68 0 0 Z " fill="#44A596" transform="translate(68,107)"/>
<path d="M0 0 C2.64 0.33 5.28 0.66 8 1 C8 2.32 8 3.64 8 5 C4.62496331 3.8141763 2.35277269 2.72426311 0 0 Z " fill="#637580" transform="translate(152,92)"/>
<path d="M0 0 C1.875 0.125 1.875 0.125 4 1 C5.75 3.5625 5.75 3.5625 7 6 C3.62496331 4.8141763 1.35277269 3.72426311 -1 1 C-0.67 0.67 -0.34 0.34 0 0 Z " fill="#5A6E7A" transform="translate(143,85)"/>
<path d="M0 0 C1.67542976 0.28604898 3.34385343 0.61781233 5 1 C5 1.99 5 2.98 5 4 C3.35 4.33 1.7 4.66 0 5 C-0.5625 3.0625 -0.5625 3.0625 -1 1 C-0.67 0.67 -0.34 0.34 0 0 Z " fill="#415968" transform="translate(170,74)"/>
<path d="M0 0 C1.66611905 -0.042721 3.33382885 -0.04063832 5 0 C6 1 6 1 6.0625 3.5625 C6.041875 4.366875 6.02125 5.17125 6 6 C3.97945196 4.35830472 1.97956942 2.69088222 0 1 C0 0.67 0 0.34 0 0 Z " fill="#45A290" transform="translate(15,74)"/>
<path d="M0 0 C0.99 0.33 1.98 0.66 3 1 C3.33 2.98 3.66 4.96 4 7 C1.525 6.01 1.525 6.01 -1 5 C-0.67 3.35 -0.34 1.7 0 0 Z " fill="#465F70" transform="translate(114,65)"/>
<path d="M0 0 C0 3 0 3 -1 6 C-4.0625 7.1875 -4.0625 7.1875 -7 8 C-6.02133662 6.85373678 -5.04205413 5.70800212 -4.0625 4.5625 C-3.51722656 3.92441406 -2.97195312 3.28632812 -2.41015625 2.62890625 C-1.63204305 1.73008851 -0.84063472 0.84063472 0 0 Z " fill="#71BBB0" transform="translate(24,115)"/>
<path d="M0 0 C-6.75 4 -6.75 4 -9 4 C-9 3.01 -9 2.02 -9 1 C-5.57367167 -0.61798838 -3.61944899 -1.34053666 0 0 Z " fill="#627680" transform="translate(189,115)"/>
<path d="M0 0 C2.475 0.99 2.475 0.99 5 2 C3.6875 3.5 3.6875 3.5 2 5 C1.01 5 0.02 5 -1 5 C-0.67 3.35 -0.34 1.7 0 0 Z " fill="#4D626D" transform="translate(106,156)"/>
<path d="M0 0 C0.66 0.33 1.32 0.66 2 1 C0.25 3.0625 0.25 3.0625 -2 5 C-4.25 4.75 -4.25 4.75 -6 4 C-4.02 2.68 -2.04 1.36 0 0 Z " fill="#657882" transform="translate(153,104)"/>
<path d="M0 0 C-1.75 3.875 -1.75 3.875 -4 5 C-4.66 4.67 -5.32 4.34 -6 4 C-5.67 3.01 -5.34 2.02 -5 1 C-3 0 -3 0 0 0 Z " fill="#4B6370" transform="translate(161,101)"/>
<path d="M0 0 C1.32 0 2.64 0 4 0 C4 0.66 4 1.32 4 2 C4.99 2 5.98 2 7 2 C7 2.99 7 3.98 7 5 C4.0625 4.1875 4.0625 4.1875 1 3 C0.67 2.01 0.34 1.02 0 0 Z " fill="#82C1B9" transform="translate(1,155)"/>
<path d="M0 0 C1.485 0.99 1.485 0.99 3 2 C2.01 2.99 1.02 3.98 0 5 C-0.5625 3.0625 -0.5625 3.0625 -1 1 C-0.67 0.67 -0.34 0.34 0 0 Z M-2 4 C-1.67 4.66 -1.34 5.32 -1 6 C-2.65 6 -4.3 6 -6 6 C-4.68 5.34 -3.36 4.68 -2 4 Z " fill="#274A59" transform="translate(127,121)"/>
<path d="M0 0 C1.32 0 2.64 0 4 0 C4 1.65 4 3.3 4 5 C2.68 4.34 1.36 3.68 0 3 C0 2.01 0 1.02 0 0 Z " fill="#288E7B" transform="translate(34,91)"/>
<path d="M0 0 C0.33 0.99 0.66 1.98 1 3 C-0.9375 5.6875 -0.9375 5.6875 -3 8 C-3 5.69 -3 3.38 -3 1 C-2.01 0.67 -1.02 0.34 0 0 Z " fill="#85C4BA" transform="translate(3,42)"/>
<path d="M0 0 C5.28 0 10.56 0 16 0 C16 0.33 16 0.66 16 1 C10.72 1 5.44 1 0 1 C0 0.67 0 0.34 0 0 Z " fill="#FFFFFF" transform="translate(14,164)"/>
<path d="M0 0 C4 1 4 1 4 1 Z " fill="#FFFFFF" transform="translate(10,163)"/>
<path d="M0 0 C1 4 1 4 1 4 Z " fill="#FFFFFF" transform="translate(77,100)"/>
<path d="M0 0 C0.66 0.66 1.32 1.32 2 2 C1.01 2.495 1.01 2.495 0 3 C0 2.01 0 1.02 0 0 Z " fill="#FFFFFF" transform="translate(37,98)"/>
<path d="M0 0 C3 1 3 1 3 1 Z " fill="#FFFFFF" transform="translate(32,163)"/>
<path d="" fill="#FFFFFF" transform="translate(0,0)"/>
<path d="M0 0 C2 1 2 1 2 1 Z " fill="#FFFFFF" transform="translate(106,162)"/>
<path d="M0 0 C2 1 2 1 2 1 Z " fill="#FFFFFF" transform="translate(8,162)"/>
<path d="M0 0 C2 1 2 1 2 1 Z " fill="#FFFFFF" transform="translate(108,161)"/>
<path d="M0 0 C2 1 2 1 2 1 Z " fill="#FFFFFF" transform="translate(6,161)"/>
<path d="M0 0 C2 1 2 1 2 1 Z " fill="#FFFFFF" transform="translate(110,160)"/>
<path d="M0 0 C2 1 2 1 2 1 Z " fill="#FFFFFF" transform="translate(113,158)"/>
<path d="M0 0 C2 1 2 1 2 1 Z " fill="#FFFFFF" transform="translate(115,157)"/>
<path d="M0 0 C2 1 2 1 2 1 Z " fill="#FFFFFF" transform="translate(117,156)"/>
<path d="M0 0 C2 1 2 1 2 1 Z " fill="#FFFFFF" transform="translate(120,154)"/>
<path d="M0 0 C2 1 2 1 2 1 Z " fill="#FFFFFF" transform="translate(122,153)"/>
<path d="M0 0 C2 1 2 1 2 1 Z " fill="#FFFFFF" transform="translate(127,150)"/>
<path d="M0 0 C2 1 2 1 2 1 Z " fill="#FFFFFF" transform="translate(129,149)"/>
<path d="M0 0 C2 1 2 1 2 1 Z " fill="#FFFFFF" transform="translate(131,148)"/>
<path d="M0 0 C2 1 2 1 2 1 Z " fill="#FFFFFF" transform="translate(134,146)"/>
<path d="M0 0 C2 1 2 1 2 1 Z " fill="#FFFFFF" transform="translate(136,145)"/>
<path d="M0 0 C2 1 2 1 2 1 Z " fill="#FFFFFF" transform="translate(138,144)"/>
<path d="M0 0 C2 1 2 1 2 1 Z " fill="#FFFFFF" transform="translate(141,142)"/>
<path d="M0 0 C2 1 2 1 2 1 Z " fill="#FFFFFF" transform="translate(143,141)"/>
<path d="M0 0 C2 1 2 1 2 1 Z " fill="#FFFFFF" transform="translate(145,140)"/>
<path d="M0 0 C2 1 2 1 2 1 Z " fill="#FFFFFF" transform="translate(150,137)"/>
<path d="M0 0 C2 1 2 1 2 1 Z " fill="#FFFFFF" transform="translate(152,136)"/>
<path d="M0 0 C2 1 2 1 2 1 Z " fill="#FFFFFF" transform="translate(155,134)"/>
<path d="M0 0 C2 1 2 1 2 1 Z " fill="#FFFFFF" transform="translate(157,133)"/>
<path d="M0 0 C2 1 2 1 2 1 Z " fill="#FFFFFF" transform="translate(159,132)"/>
<path d="M0 0 C2 1 2 1 2 1 Z " fill="#FFFFFF" transform="translate(162,130)"/>
<path d="M0 0 C2 1 2 1 2 1 Z " fill="#FFFFFF" transform="translate(107,130)"/>
<path d="M0 0 C2 1 2 1 2 1 Z " fill="#FFFFFF" transform="translate(164,129)"/>
<path d="M0 0 C2 1 2 1 2 1 Z " fill="#FFFFFF" transform="translate(109,129)"/>
<path d="M0 0 C2 1 2 1 2 1 Z " fill="#FFFFFF" transform="translate(166,128)"/>
<path d="M0 0 C2 1 2 1 2 1 Z " fill="#FFFFFF" transform="translate(168,127)"/>
<path d="M0 0 C2 1 2 1 2 1 Z " fill="#FFFFFF" transform="translate(112,127)"/>
<path d="M0 0 C2 1 2 1 2 1 Z " fill="#FFFFFF" transform="translate(114,126)"/>
<path d="M0 0 C2 1 2 1 2 1 Z " fill="#FFFFFF" transform="translate(171,125)"/>
<path d="M0 0 C2 1 2 1 2 1 Z " fill="#FFFFFF" transform="translate(173,124)"/>
<path d="M0 0 C2 1 2 1 2 1 Z " fill="#FFFFFF" transform="translate(117,124)"/>
<path d="M0 0 C2 1 2 1 2 1 Z " fill="#FFFFFF" transform="translate(175,123)"/>
<path d="M0 0 C2 1 2 1 2 1 Z " fill="#FFFFFF" transform="translate(120,122)"/>
<path d="M0 0 C2 1 2 1 2 1 Z " fill="#FFFFFF" transform="translate(178,121)"/>
<path d="M0 0 C2 1 2 1 2 1 Z " fill="#FFFFFF" transform="translate(122,121)"/>
<path d="M0 0 C2 1 2 1 2 1 Z " fill="#FFFFFF" transform="translate(180,120)"/>
<path d="M0 0 C2 1 2 1 2 1 Z " fill="#FFFFFF" transform="translate(182,119)"/>
<path d="M0 0 C2 1 2 1 2 1 Z " fill="#FFFFFF" transform="translate(125,119)"/>
<path d="M0 0 C2 1 2 1 2 1 Z " fill="#FFFFFF" transform="translate(127,118)"/>
<path d="M0 0 C2 1 2 1 2 1 Z " fill="#FFFFFF" transform="translate(185,117)"/>
<path d="M0 0 C2 1 2 1 2 1 Z " fill="#FFFFFF" transform="translate(187,116)"/>
<path d="M0 0 C2 1 2 1 2 1 Z " fill="#FFFFFF" transform="translate(130,116)"/>
<path d="M0 0 C2 1 2 1 2 1 Z " fill="#FFFFFF" transform="translate(189,115)"/>
<path d="M0 0 C2 1 2 1 2 1 Z " fill="#FFFFFF" transform="translate(132,115)"/>
<path d="M0 0 C2 1 2 1 2 1 Z " fill="#FFFFFF" transform="translate(192,113)"/>
<path d="M0 0 C2 1 2 1 2 1 Z " fill="#FFFFFF" transform="translate(135,113)"/>
<path d="M0 0 C2 1 2 1 2 1 Z " fill="#FFFFFF" transform="translate(138,111)"/>
<path d="M0 0 C2 1 2 1 2 1 Z " fill="#FFFFFF" transform="translate(140,110)"/>
<path d="M0 0 C2 1 2 1 2 1 Z " fill="#FFFFFF" transform="translate(143,108)"/>
<path d="M0 0 C2 1 2 1 2 1 Z " fill="#FFFFFF" transform="translate(148,105)"/>
<path d="M0 0 C2 1 2 1 2 1 Z " fill="#FFFFFF" transform="translate(151,103)"/>
<path d="M0 0 C2 1 2 1 2 1 Z " fill="#FFFFFF" transform="translate(153,102)"/>
<path d="M0 0 C2 1 2 1 2 1 Z " fill="#FFFFFF" transform="translate(156,100)"/>
<path d="M0 0 C2 1 2 1 2 1 Z " fill="#FFFFFF" transform="translate(155,96)"/>
<path d="M0 0 C2 1 2 1 2 1 Z " fill="#FFFFFF" transform="translate(153,95)"/>
<path d="M0 0 C2 1 2 1 2 1 Z " fill="#FFFFFF" transform="translate(150,93)"/>
<path d="M0 0 C2 1 2 1 2 1 Z " fill="#FFFFFF" transform="translate(148,92)"/>
<path d="M0 0 C2 1 2 1 2 1 Z " fill="#FFFFFF" transform="translate(145,90)"/>
<path d="M0 0 C2 1 2 1 2 1 Z " fill="#FFFFFF" transform="translate(143,89)"/>
<path d="M0 0 C2 1 2 1 2 1 Z " fill="#FFFFFF" transform="translate(141,88)"/>
<path d="M0 0 C2 1 2 1 2 1 Z " fill="#FFFFFF" transform="translate(138,86)"/>
<path d="M0 0 C2 1 2 1 2 1 Z " fill="#FFFFFF" transform="translate(136,85)"/>
<path d="M0 0 C2 1 2 1 2 1 Z " fill="#FFFFFF" transform="translate(191,83)"/>
<path d="M0 0 C2 1 2 1 2 1 Z " fill="#FFFFFF" transform="translate(133,83)"/>
<path d="M0 0 C2 1 2 1 2 1 Z " fill="#FFFFFF" transform="translate(131,82)"/>
<path d="M0 0 C2 1 2 1 2 1 Z " fill="#FFFFFF" transform="translate(188,81)"/>
<path d="M0 0 C2 1 2 1 2 1 Z " fill="#FFFFFF" transform="translate(186,80)"/>
<path d="M0 0 C2 1 2 1 2 1 Z " fill="#FFFFFF" transform="translate(128,80)"/>
<path d="M0 0 C2 1 2 1 2 1 Z " fill="#FFFFFF" transform="translate(184,79)"/>
<path d="M0 0 C2 1 2 1 2 1 Z " fill="#FFFFFF" transform="translate(126,79)"/>
<path d="M0 0 C2 1 2 1 2 1 Z " fill="#FFFFFF" transform="translate(182,78)"/>
<path d="M0 0 C2 1 2 1 2 1 Z " fill="#FFFFFF" transform="translate(123,77)"/>
<path d="M0 0 C2 1 2 1 2 1 Z " fill="#FFFFFF" transform="translate(121,76)"/>
<path d="M0 0 C2 1 2 1 2 1 Z " fill="#FFFFFF" transform="translate(177,75)"/>
<path d="M0 0 C2 1 2 1 2 1 Z " fill="#FFFFFF" transform="translate(175,74)"/>
<path d="M0 0 C2 1 2 1 2 1 Z " fill="#FFFFFF" transform="translate(173,73)"/>
<path d="M0 0 C2 1 2 1 2 1 Z " fill="#FFFFFF" transform="translate(116,73)"/>
<path d="M0 0 C2 1 2 1 2 1 Z " fill="#FFFFFF" transform="translate(170,71)"/>
<path d="M0 0 C2 1 2 1 2 1 Z " fill="#FFFFFF" transform="translate(113,71)"/>
<path d="M0 0 C2 1 2 1 2 1 Z " fill="#FFFFFF" transform="translate(168,70)"/>
<path d="M0 0 C2 1 2 1 2 1 Z " fill="#FFFFFF" transform="translate(111,70)"/>
<path d="M0 0 C2 1 2 1 2 1 Z " fill="#FFFFFF" transform="translate(166,69)"/>
<path d="M0 0 C2 1 2 1 2 1 Z " fill="#FFFFFF" transform="translate(109,69)"/>
<path d="M0 0 C2 1 2 1 2 1 Z " fill="#FFFFFF" transform="translate(164,68)"/>
<path d="M0 0 C2 1 2 1 2 1 Z " fill="#FFFFFF" transform="translate(162,67)"/>
<path d="M0 0 C2 1 2 1 2 1 Z " fill="#FFFFFF" transform="translate(106,67)"/>
<path d="M0 0 C2 1 2 1 2 1 Z " fill="#FFFFFF" transform="translate(159,65)"/>
<path d="M0 0 C2 1 2 1 2 1 Z " fill="#FFFFFF" transform="translate(157,64)"/>
<path d="M0 0 C2 1 2 1 2 1 Z " fill="#FFFFFF" transform="translate(155,63)"/>
<path d="M0 0 C2 1 2 1 2 1 Z " fill="#FFFFFF" transform="translate(153,62)"/>
<path d="M0 0 C2 1 2 1 2 1 Z " fill="#FFFFFF" transform="translate(150,60)"/>
<path d="M0 0 C2 1 2 1 2 1 Z " fill="#FFFFFF" transform="translate(148,59)"/>
<path d="M0 0 C2 1 2 1 2 1 Z " fill="#FFFFFF" transform="translate(146,58)"/>
<path d="M0 0 C2 1 2 1 2 1 Z " fill="#FFFFFF" transform="translate(144,57)"/>
<path d="M0 0 C2 1 2 1 2 1 Z " fill="#FFFFFF" transform="translate(141,55)"/>
<path d="M0 0 C2 1 2 1 2 1 Z " fill="#FFFFFF" transform="translate(139,54)"/>
<path d="M0 0 C2 1 2 1 2 1 Z " fill="#FFFFFF" transform="translate(137,53)"/>
<path d="M0 0 C2 1 2 1 2 1 Z " fill="#FFFFFF" transform="translate(135,52)"/>
<path d="M0 0 C2 1 2 1 2 1 Z " fill="#FFFFFF" transform="translate(132,50)"/>
<path d="M0 0 C2 1 2 1 2 1 Z " fill="#FFFFFF" transform="translate(130,49)"/>
<path d="M0 0 C2 1 2 1 2 1 Z " fill="#FFFFFF" transform="translate(128,48)"/>
<path d="M0 0 C2 1 2 1 2 1 Z " fill="#FFFFFF" transform="translate(126,47)"/>
<path d="M0 0 C2 1 2 1 2 1 Z " fill="#FFFFFF" transform="translate(123,45)"/>
<path d="M0 0 C2 1 2 1 2 1 Z " fill="#FFFFFF" transform="translate(121,44)"/>
<path d="M0 0 C2 1 2 1 2 1 Z " fill="#FFFFFF" transform="translate(119,43)"/>
<path d="M0 0 C2 1 2 1 2 1 Z " fill="#FFFFFF" transform="translate(117,42)"/>
<path d="M0 0 C2 1 2 1 2 1 Z " fill="#FFFFFF" transform="translate(112,39)"/>
<path d="M0 0 C2 1 2 1 2 1 Z " fill="#FFFFFF" transform="translate(110,38)"/>
<path d="M0 0 C2 1 2 1 2 1 Z " fill="#FFFFFF" transform="translate(108,37)"/>
<path d="M0 0 C2 1 2 1 2 1 Z " fill="#FFFFFF" transform="translate(7,36)"/>
<path d="M0 0 C2 1 2 1 2 1 Z " fill="#FFFFFF" transform="translate(105,35)"/>
<path d="M0 0 C2 1 2 1 2 1 Z " fill="#FFFFFF" transform="translate(10,35)"/>
<path d="" fill="#FFFFFF" transform="translate(0,0)"/>
<path d="" fill="#FFFFFF" transform="translate(0,0)"/>
<path d="" fill="#FFFFFF" transform="translate(0,0)"/>
<path d="" fill="#FFFFFF" transform="translate(0,0)"/>
<path d="" fill="#FFFFFF" transform="translate(0,0)"/>
<path d="" fill="#FFFFFF" transform="translate(0,0)"/>
<path d="" fill="#FFFFFF" transform="translate(0,0)"/>
<path d="" fill="#FFFFFF" transform="translate(0,0)"/>
<path d="" fill="#FFFFFF" transform="translate(0,0)"/>
<path d="" fill="#FFFFFF" transform="translate(0,0)"/>
<path d="" fill="#FFFFFF" transform="translate(0,0)"/>
<path d="" fill="#FFFFFF" transform="translate(0,0)"/>
<path d="" fill="#FFFFFF" transform="translate(0,0)"/>
<path d="" fill="#FFFFFF" transform="translate(0,0)"/>
<path d="" fill="#FFFFFF" transform="translate(0,0)"/>
<path d="" fill="#FFFFFF" transform="translate(0,0)"/>
<path d="" fill="#FFFFFF" transform="translate(0,0)"/>
<path d="" fill="#FFFFFF" transform="translate(0,0)"/>
<path d="" fill="#FFFFFF" transform="translate(0,0)"/>
<path d="" fill="#FFFFFF" transform="translate(0,0)"/>
<path d="" fill="#FFFFFF" transform="translate(0,0)"/>
<path d="" fill="#FFFFFF" transform="translate(0,0)"/>
<path d="" fill="#FFFFFF" transform="translate(0,0)"/>
<path d="" fill="#FFFFFF" transform="translate(0,0)"/>
<path d="" fill="#FFFFFF" transform="translate(0,0)"/>
<path d="" fill="#FFFFFF" transform="translate(0,0)"/>
<path d="" fill="#FFFFFF" transform="translate(0,0)"/>
<path d="" fill="#FFFFFF" transform="translate(0,0)"/>
<path d="" fill="#FFFFFF" transform="translate(0,0)"/>
<path d="" fill="#FFFFFF" transform="translate(0,0)"/>
<path d="" fill="#FFFFFF" transform="translate(0,0)"/>
<path d="" fill="#FFFFFF" transform="translate(0,0)"/>
<path d="" fill="#FFFFFF" transform="translate(0,0)"/>
<path d="" fill="#FFFFFF" transform="translate(0,0)"/>
<path d="" fill="#FFFFFF" transform="translate(0,0)"/>
<path d="" fill="#FFFFFF" transform="translate(0,0)"/>
<path d="" fill="#FFFFFF" transform="translate(0,0)"/>
<path d="" fill="#FFFFFF" transform="translate(0,0)"/>
<path d="" fill="#FFFFFF" transform="translate(0,0)"/>
<path d="" fill="#FFFFFF" transform="translate(0,0)"/>
<path d="" fill="#FFFFFF" transform="translate(0,0)"/>
<path d="" fill="#FFFFFF" transform="translate(0,0)"/>
<path d="" fill="#FFFFFF" transform="translate(0,0)"/>
<path d="" fill="#FFFFFF" transform="translate(0,0)"/>
<path d="" fill="#FFFFFF" transform="translate(0,0)"/>
<path d="" fill="#FFFFFF" transform="translate(0,0)"/>
<path d="" fill="#FFFFFF" transform="translate(0,0)"/>
<path d="" fill="#FFFFFF" transform="translate(0,0)"/>
<path d="" fill="#FFFFFF" transform="translate(0,0)"/>
<path d="" fill="#FFFFFF" transform="translate(0,0)"/>
<path d="" fill="#FFFFFF" transform="translate(0,0)"/>
<path d="" fill="#FFFFFF" transform="translate(0,0)"/>
<path d="" fill="#FFFFFF" transform="translate(0,0)"/>
<path d="" fill="#FFFFFF" transform="translate(0,0)"/>
<path d="" fill="#FFFFFF" transform="translate(0,0)"/>
<path d="" fill="#FFFFFF" transform="translate(0,0)"/>
<path d="" fill="#FFFFFF" transform="translate(0,0)"/>
<path d="" fill="#FFFFFF" transform="translate(0,0)"/>
<path d="" fill="#FFFFFF" transform="translate(0,0)"/>
<path d="" fill="#FFFFFF" transform="translate(0,0)"/>
<path d="" fill="#FFFFFF" transform="translate(0,0)"/>
<path d="" fill="#FFFFFF" transform="translate(0,0)"/>
<path d="" fill="#FFFFFF" transform="translate(0,0)"/>
<path d="" fill="#FFFFFF" transform="translate(0,0)"/>
<path d="" fill="#FFFFFF" transform="translate(0,0)"/>
<path d="" fill="#FFFFFF" transform="translate(0,0)"/>
<path d="" fill="#FFFFFF" transform="translate(0,0)"/>
<path d="" fill="#FFFFFF" transform="translate(0,0)"/>
<path d="" fill="#FFFFFF" transform="translate(0,0)"/>
<path d="" fill="#FFFFFF" transform="translate(0,0)"/>
<path d="" fill="#FFFFFF" transform="translate(0,0)"/>
<path d="" fill="#FFFFFF" transform="translate(0,0)"/>
<path d="" fill="#FFFFFF" transform="translate(0,0)"/>
<path d="" fill="#FFFFFF" transform="translate(0,0)"/>
<path d="" fill="#FFFFFF" transform="translate(0,0)"/>
<path d="" fill="#FFFFFF" transform="translate(0,0)"/>
<path d="" fill="#FFFFFF" transform="translate(0,0)"/>
<path d="" fill="#FFFFFF" transform="translate(0,0)"/>
<path d="" fill="#FFFFFF" transform="translate(0,0)"/>
<path d="" fill="#FFFFFF" transform="translate(0,0)"/>
<path d="" fill="#FFFFFF" transform="translate(0,0)"/>
<path d="" fill="#FFFFFF" transform="translate(0,0)"/>
<path d="" fill="#FFFFFF" transform="translate(0,0)"/>
<path d="" fill="#FFFFFF" transform="translate(0,0)"/>
<path d="" fill="#FFFFFF" transform="translate(0,0)"/>
<path d="" fill="#FFFFFF" transform="translate(0,0)"/>
<path d="" fill="#FFFFFF" transform="translate(0,0)"/>
<path d="" fill="#FFFFFF" transform="translate(0,0)"/>
<path d="" fill="#FFFFFF" transform="translate(0,0)"/>
<path d="" fill="#FFFFFF" transform="translate(0,0)"/>
<path d="" fill="#FFFFFF" transform="translate(0,0)"/>
<path d="" fill="#FFFFFF" transform="translate(0,0)"/>
<path d="" fill="#FFFFFF" transform="translate(0,0)"/>
<path d="" fill="#FFFFFF" transform="translate(0,0)"/>
<path d="" fill="#FFFFFF" transform="translate(0,0)"/>
<path d="" fill="#FFFFFF" transform="translate(0,0)"/>
<path d="" fill="#FFFFFF" transform="translate(0,0)"/>
<path d="" fill="#FFFFFF" transform="translate(0,0)"/>
<path d="" fill="#FFFFFF" transform="translate(0,0)"/>
<path d="" fill="#FFFFFF" transform="translate(0,0)"/>
<path d="" fill="#FFFFFF" transform="translate(0,0)"/>
<path d="" fill="#FFFFFF" transform="translate(0,0)"/>
<path d="" fill="#FFFFFF" transform="translate(0,0)"/>
<path d="" fill="#FFFFFF" transform="translate(0,0)"/>
<path d="" fill="#FFFFFF" transform="translate(0,0)"/>
<path d="" fill="#FFFFFF" transform="translate(0,0)"/>
<path d="" fill="#FFFFFF" transform="translate(0,0)"/>
<path d="" fill="#FFFFFF" transform="translate(0,0)"/>
<path d="" fill="#FFFFFF" transform="translate(0,0)"/>
<path d="" fill="#FFFFFF" transform="translate(0,0)"/>
<path d="" fill="#FFFFFF" transform="translate(0,0)"/>
<path d="" fill="#FFFFFF" transform="translate(0,0)"/>
<path d="" fill="#FFFFFF" transform="translate(0,0)"/>
<path d="" fill="#FFFFFF" transform="translate(0,0)"/>
<path d="" fill="#FFFFFF" transform="translate(0,0)"/>
<path d="" fill="#FFFFFF" transform="translate(0,0)"/>
<path d="" fill="#FFFFFF" transform="translate(0,0)"/>
<path d="" fill="#FFFFFF" transform="translate(0,0)"/>
<path d="" fill="#FFFFFF" transform="translate(0,0)"/>
<path d="" fill="#FFFFFF" transform="translate(0,0)"/>
<path d="" fill="#FFFFFF" transform="translate(0,0)"/>
<path d="" fill="#FFFFFF" transform="translate(0,0)"/>
<path d="" fill="#FFFFFF" transform="translate(0,0)"/>
<path d="" fill="#FFFFFF" transform="translate(0,0)"/>
<path d="" fill="#FFFFFF" transform="translate(0,0)"/>
<path d="" fill="#FFFFFF" transform="translate(0,0)"/>
<path d="" fill="#FFFFFF" transform="translate(0,0)"/>
<path d="" fill="#FFFFFF" transform="translate(0,0)"/>
<path d="" fill="#FFFFFF" transform="translate(0,0)"/>
<path d="" fill="#FFFFFF" transform="translate(0,0)"/>
<path d="" fill="#FFFFFF" transform="translate(0,0)"/>
<path d="" fill="#FFFFFF" transform="translate(0,0)"/>
<path d="" fill="#FFFFFF" transform="translate(0,0)"/>
<path d="" fill="#FFFFFF" transform="translate(0,0)"/>
<path d="" fill="#FFFFFF" transform="translate(0,0)"/>
<path d="" fill="#FFFFFF" transform="translate(0,0)"/>
<path d="" fill="#FFFFFF" transform="translate(0,0)"/>
<path d="" fill="#FFFFFF" transform="translate(0,0)"/>
<path d="" fill="#FFFFFF" transform="translate(0,0)"/>
<path d="" fill="#FFFFFF" transform="translate(0,0)"/>
<path d="" fill="#FFFFFF" transform="translate(0,0)"/>
<path d="" fill="#FFFFFF" transform="translate(0,0)"/>
<path d="" fill="#FFFFFF" transform="translate(0,0)"/>
<path d="" fill="#FFFFFF" transform="translate(0,0)"/>
<path d="" fill="#FFFFFF" transform="translate(0,0)"/>
<path d="" fill="#FFFFFF" transform="translate(0,0)"/>
<path d="" fill="#FFFFFF" transform="translate(0,0)"/>
<path d="" fill="#FFFFFF" transform="translate(0,0)"/>
<path d="" fill="#FFFFFF" transform="translate(0,0)"/>
<path d="" fill="#FFFFFF" transform="translate(0,0)"/>
<path d="" fill="#FFFFFF" transform="translate(0,0)"/>
<path d="" fill="#FFFFFF" transform="translate(0,0)"/>
<path d="" fill="#FFFFFF" transform="translate(0,0)"/>
<path d="" fill="#FFFFFF" transform="translate(0,0)"/>
<path d="" fill="#FFFFFF" transform="translate(0,0)"/>
<path d="" fill="#FFFFFF" transform="translate(0,0)"/>
<path d="" fill="#FFFFFF" transform="translate(0,0)"/>
<path d="" fill="#FFFFFF" transform="translate(0,0)"/>
<path d="" fill="#FFFFFF" transform="translate(0,0)"/>
<path d="" fill="#FFFFFF" transform="translate(0,0)"/>
<path d="" fill="#FFFFFF" transform="translate(0,0)"/>
<path d="" fill="#FFFFFF" transform="translate(0,0)"/>
<path d="" fill="#FFFFFF" transform="translate(0,0)"/>
<path d="" fill="#FFFFFF" transform="translate(0,0)"/>
<path d="" fill="#FFFFFF" transform="translate(0,0)"/>
<path d="" fill="#FFFFFF" transform="translate(0,0)"/>
<path d="" fill="#FFFFFF" transform="translate(0,0)"/>
<path d="" fill="#FFFFFF" transform="translate(0,0)"/>
<path d="" fill="#FFFFFF" transform="translate(0,0)"/>
<path d="" fill="#FFFFFF" transform="translate(0,0)"/>
<path d="" fill="#FFFFFF" transform="translate(0,0)"/>
<path d="" fill="#FFFFFF" transform="translate(0,0)"/>
<path d="" fill="#FFFFFF" transform="translate(0,0)"/>
<path d="" fill="#FFFFFF" transform="translate(0,0)"/>
<path d="" fill="#FFFFFF" transform="translate(0,0)"/>
<path d="" fill="#FFFFFF" transform="translate(0,0)"/>
<path d="" fill="#FFFFFF" transform="translate(0,0)"/>
<path d="" fill="#FFFFFF" transform="translate(0,0)"/>
<path d="" fill="#FFFFFF" transform="translate(0,0)"/>
<path d="" fill="#FFFFFF" transform="translate(0,0)"/>
<path d="" fill="#FFFFFF" transform="translate(0,0)"/>
<path d="" fill="#FFFFFF" transform="translate(0,0)"/>
<path d="" fill="#FFFFFF" transform="translate(0,0)"/>
<path d="" fill="#FFFFFF" transform="translate(0,0)"/>
<path d="" fill="#FFFFFF" transform="translate(0,0)"/>
<path d="" fill="#FFFFFF" transform="translate(0,0)"/>
</svg>
